<?xml version="1.0" standalone="no"?>
<!DOCTYPE svg PUBLIC "-//W3C//DTD SVG 20010904//EN"
 "http://www.w3.org/TR/2001/REC-SVG-20010904/DTD/svg10.dtd">
<svg version="1.0" xmlns="http://www.w3.org/2000/svg"
 width="1198.000000pt" height="888.000000pt" viewBox="0 0 1198.000000 888.000000"
 preserveAspectRatio="xMidYMid meet">

<g transform="translate(0.000000,888.000000) scale(0.100000,-0.100000)"
fill="#000000" stroke="none">
<path d="M0 4440 l0 -4440 5990 0 5990 0 0 4440 0 4440 -5990 0 -5990 0 0
-4440z m8485 4319 c11 -17 -1 -21 -15 -4 -8 9 -8 15 -2 15 6 0 14 -5 17 -11z
m-5694 -74 c-2 -33 -2 -34 32 -28 24 3 38 0 50 -12 22 -22 23 -98 1 -119 -18
-19 -55 -21 -72 -4 -9 9 -12 9 -12 0 0 -7 -4 -12 -10 -12 -11 0 -14 202 -3
213 12 12 17 -3 14 -38z m5757 7 c76 -76 153 -215 151 -275 l0 -32 -13 40
c-22 70 -88 187 -127 228 -26 27 -59 67 -59 72 0 11 12 3 48 -33z m-8262 1
c-10 -10 -19 5 -10 18 6 11 8 11 12 0 2 -7 1 -15 -2 -18z m284 12 c0 -8 -4
-15 -10 -15 -5 0 -10 7 -10 15 0 8 5 15 10 15 6 0 10 -7 10 -15z m2410 0 c0
-8 -7 -15 -15 -15 -16 0 -20 12 -8 23 11 12 23 8 23 -8z m-2792 -1 c31 -9 28
-26 -5 -23 -53 4 -64 -1 -78 -34 -27 -65 11 -126 70 -111 21 5 27 4 23 -7 -2
-8 -21 -15 -41 -17 -53 -5 -87 32 -86 90 1 56 10 77 40 94 27 15 43 17 77 8z
m827 -4 c4 -6 -10 -10 -34 -10 l-41 0 0 -40 c0 -39 1 -40 35 -40 19 0 35 -4
35 -10 0 -5 -16 -10 -35 -10 -34 0 -35 -1 -35 -40 0 -29 -4 -40 -15 -40 -12 0
-15 17 -15 93 0 52 3 97 7 100 10 11 91 8 98 -3z m149 4 c27 -10 18 -27 -11
-21 -37 7 -53 -1 -53 -28 0 -18 8 -26 35 -35 43 -14 59 -39 45 -74 -14 -38
-97 -51 -108 -17 -3 10 2 12 22 7 30 -7 66 8 66 29 0 7 -19 24 -42 37 -31 17
-44 30 -46 50 -5 41 46 70 92 52z m154 -98 c2 -76 0 -97 -10 -94 -9 3 -14 30
-16 81 -3 73 -4 77 -22 67 -14 -8 -20 -8 -20 1 0 14 42 49 55 45 6 -1 11 -46
13 -100z m192 86 c34 -28 40 -117 10 -154 -26 -33 -60 -36 -86 -7 -14 16 -19
36 -19 79 0 88 43 124 95 82z m284 9 c26 -10 8 -20 -33 -19 -43 1 -66 -23 -66
-71 0 -55 28 -84 73 -76 26 5 33 3 30 -7 -8 -23 -71 -21 -101 2 -23 18 -27 29
-26 68 1 60 9 81 40 98 27 15 54 16 83 5z m183 -90 c18 -52 31 -97 27 -100 -7
-7 -34 28 -34 45 0 6 -16 14 -36 16 -33 4 -38 1 -52 -29 -16 -34 -32 -44 -32
-20 0 11 10 38 61 165 15 39 30 21 66 -77z m152 26 c13 -37 27 -67 31 -67 4 0
18 30 31 68 19 52 28 67 44 67 19 0 20 -7 20 -94 0 -67 -4 -96 -12 -99 -10 -3
-13 15 -13 69 0 40 -3 69 -7 65 -5 -4 -17 -35 -29 -69 -12 -37 -26 -62 -35
-62 -8 0 -24 28 -39 70 l-25 70 -3 -73 c-2 -50 -7 -72 -14 -70 -8 3 -12 35
-11 99 1 52 2 95 2 97 1 2 9 2 19 0 11 -2 25 -26 41 -71z m405 67 c30 -11 16
-24 -25 -24 -50 0 -68 -19 -69 -72 0 -53 30 -82 76 -73 34 6 48 -8 18 -19 -66
-25 -124 16 -124 89 0 74 62 123 124 99z m857 -4 c33 -18 25 -73 -17 -119
l-35 -40 37 -3 c21 -2 39 -9 42 -15 3 -10 -13 -13 -57 -13 -39 0 -61 4 -61 11
0 7 20 37 45 67 56 68 55 88 -3 85 -44 -2 -54 9 -24 26 22 13 48 14 73 1z
m188 -16 c29 -37 29 -126 1 -154 -42 -42 -92 -17 -105 52 -18 95 54 165 104
102z m169 10 c34 -23 28 -58 -19 -109 l-40 -44 42 -3 c23 -2 44 -9 47 -15 3
-10 -14 -13 -62 -13 -41 0 -66 4 -66 11 0 6 20 34 45 62 58 63 58 93 3 91 -41
-1 -49 9 -20 25 24 15 44 13 70 -5z m182 -4 c24 -24 24 -29 5 -57 -13 -18 -13
-22 0 -33 22 -18 18 -57 -7 -74 -23 -16 -64 -21 -92 -10 -26 10 -18 26 12 24
66 -5 74 -2 70 28 -2 20 -9 28 -28 30 -39 6 -45 19 -12 27 31 6 47 28 36 47
-4 6 -24 8 -45 5 -41 -5 -51 5 -21 22 27 16 60 13 82 -9z m290 0 c25 -25 28
-124 4 -158 -17 -25 -65 -30 -83 -8 -22 26 -31 77 -21 120 14 64 61 85 100 46z
m172 8 c23 -19 28 -44 13 -64 -11 -15 -11 -22 1 -38 21 -30 17 -53 -10 -71
-35 -23 -77 -16 -95 17 -14 24 -14 28 4 48 16 17 17 24 7 40 -18 29 -15 47 10
64 27 19 49 20 70 4z m287 -4 c32 -23 22 -67 -26 -116 l-37 -38 32 -1 c48 -2
52 -3 55 -14 1 -6 -25 -11 -60 -13 -43 -2 -63 1 -63 9 0 6 20 34 45 62 58 63
58 93 3 91 -41 -1 -49 9 -20 25 25 15 44 13 71 -5z m181 -4 c24 -24 24 -29 5
-57 -13 -18 -13 -22 0 -33 22 -18 18 -57 -7 -74 -28 -20 -82 -21 -98 -1 -11
13 -6 15 39 15 51 0 52 1 49 28 -2 20 -9 28 -28 30 -40 6 -47 21 -13 28 37 7
51 33 28 51 -12 8 -25 9 -42 2 -32 -12 -33 -12 -33 5 0 29 73 33 100 6z m231
10 c0 -5 0 -44 0 -85 0 -106 0 -105 -11 -105 -6 0 -10 33 -10 80 0 78 -5 91
-27 69 -7 -7 -13 -7 -17 -1 -3 6 6 20 20 31 29 23 44 26 45 11z m219 -2 c0
-28 -73 -188 -86 -188 -18 0 -19 -4 21 83 19 42 35 78 35 81 0 3 -20 6 -44 6
-43 0 -63 10 -49 24 12 12 123 7 123 -6z m233 3 c30 -12 40 -46 20 -67 -14
-13 -14 -17 1 -33 47 -51 -24 -113 -98 -85 -31 12 -16 24 29 24 32 0 47 5 51
15 9 21 -14 45 -42 45 -33 0 -30 13 6 27 21 8 30 18 30 33 0 21 -4 22 -40 17
-29 -4 -40 -2 -40 8 0 12 17 21 47 24 6 0 23 -3 36 -8z m192 -16 c41 -41 28
-141 -21 -164 -34 -15 -64 -14 -64 3 0 9 7 12 18 10 21 -6 48 14 56 41 5 19 3
21 -31 17 -27 -3 -40 0 -50 14 -20 28 -16 71 9 88 32 22 55 20 83 -9z m267 8
c27 -24 22 -58 -14 -100 -18 -21 -37 -41 -42 -45 -6 -4 10 -8 34 -10 24 -2 45
-9 48 -15 3 -10 -14 -13 -62 -13 -46 0 -66 4 -66 13 0 6 20 35 45 62 55 61 56
89 5 91 -54 2 -56 4 -36 19 26 20 65 19 88 -2z m188 2 c0 -10 -10 -15 -34 -15
-22 0 -36 -6 -40 -16 -11 -28 -6 -34 27 -34 42 0 57 -15 57 -57 0 -23 -7 -37
-24 -48 -30 -20 -90 -16 -94 5 -2 12 6 15 37 12 32 -3 41 0 50 16 14 27 -9 52
-50 52 -28 0 -29 1 -29 50 l0 50 50 0 c38 0 50 -4 50 -15z m-5900 -110 c0 -43
-4 -75 -10 -75 -6 0 -10 32 -10 75 0 43 4 75 10 75 6 0 10 -32 10 -75z m170
65 c38 -20 30 -122 -11 -135 -10 -4 -28 -3 -39 0 -17 6 -20 2 -20 -29 0 -25
-4 -36 -15 -36 -12 0 -15 18 -15 103 l0 103 42 1 c22 1 49 -2 58 -7z m110 -65
c0 -43 -4 -75 -10 -75 -6 0 -10 32 -10 75 0 43 4 75 10 75 6 0 10 -32 10 -75z
m158 62 c13 -15 19 -123 8 -134 -4 -4 -11 -1 -15 6 -6 9 -11 10 -15 2 -9 -15
-49 -14 -64 1 -15 15 -15 51 0 66 7 7 24 12 39 12 31 0 41 10 30 29 -6 9 -19
11 -40 6 -18 -4 -31 -3 -31 3 0 23 71 30 88 9z m1622 -8 c0 -24 -23 -21 -28 4
-2 10 3 17 12 17 10 0 16 -9 16 -21z m351 5 c13 -16 22 -111 12 -127 -3 -4
-11 -3 -18 3 -9 8 -15 8 -20 0 -8 -14 -48 -13 -63 2 -15 15 -15 51 0 66 7 7
24 12 39 12 31 0 41 10 30 29 -6 9 -19 11 -40 6 -18 -4 -31 -3 -31 3 0 25 72
29 91 6z m279 -59 c0 -60 -3 -75 -15 -75 -12 0 -15 15 -15 75 0 60 3 75 15 75
12 0 15 -15 15 -75z m90 63 c0 -9 3 -9 12 0 17 17 54 15 72 -4 22 -22 23 -134
1 -134 -12 0 -15 13 -15 59 0 52 -3 60 -22 67 -30 9 -48 -19 -48 -78 0 -26 -4
-48 -10 -48 -6 0 -10 32 -10 75 0 43 4 75 10 75 6 0 10 -5 10 -12z m2330 -8
c0 -11 -7 -20 -15 -20 -8 0 -15 9 -15 20 0 11 7 20 15 20 8 0 15 -9 15 -20z
m450 6 c0 -20 -19 -31 -32 -18 -6 6 -7 15 -4 21 10 16 36 13 36 -3z m-4997
-55 c5 -1 5 -5 2 -11 -8 -13 -62 -13 -69 -1 -7 11 11 18 39 15 11 -1 24 -3 28
-3z m3215 -8 c2 -9 -8 -13 -32 -13 -34 0 -44 8 -29 24 11 11 56 2 61 -11z
m467 1 c0 -5 -15 -10 -32 -12 -30 -3 -42 6 -27 21 9 8 59 1 59 -9z m-2185 -54
c0 -11 -7 -20 -15 -20 -8 0 -15 9 -15 20 0 11 7 20 15 20 8 0 15 -9 15 -20z
m3050 0 c0 -11 -7 -20 -15 -20 -8 0 -15 9 -15 20 0 11 7 20 15 20 8 0 15 -9
15 -20z m450 0 c0 -11 -6 -20 -13 -20 -19 0 -27 10 -20 26 8 21 33 17 33 -6z
m-5641 -249 c19 -12 2 -19 -42 -18 -48 1 -70 -20 -70 -71 0 -47 7 -60 38 -72
57 -22 87 27 34 55 l-24 13 27 7 c38 10 48 0 48 -50 0 -40 -2 -44 -30 -50 -42
-9 -87 3 -105 28 -18 26 -20 107 -2 129 27 34 93 50 126 29z m169 -7 c45 -31
17 -104 -40 -104 -26 0 -28 -3 -28 -40 0 -29 -4 -40 -15 -40 -12 0 -15 18 -15
100 l0 100 38 0 c21 0 48 -7 60 -16z m181 7 c19 -12 -2 -23 -32 -16 -27 7 -50
-14 -41 -38 3 -9 21 -21 39 -27 34 -11 45 -26 45 -60 0 -42 -84 -67 -111 -33
-13 15 -11 16 21 11 46 -7 60 -1 60 25 0 15 -12 28 -38 42 -64 34 -53 105 17
105 14 0 32 -4 40 -9z m605 -7 c25 -24 19 -57 -19 -108 l-36 -46 41 0 c29 0
40 -4 40 -15 0 -12 -13 -15 -60 -15 -74 0 -75 8 -15 79 25 29 45 59 45 66 0
23 -37 38 -61 25 -28 -15 -39 -2 -15 16 26 18 61 18 80 -2z m180 0 c27 -26 19
-61 -25 -109 l-40 -44 42 -3 c23 -2 44 -9 47 -15 5 -16 -114 -18 -123 -2 -4 5
14 32 39 59 48 51 60 93 30 104 -8 3 -25 1 -36 -5 -27 -14 -38 -1 -14 17 26
18 61 18 80 -2z m276 -49 c0 -51 3 -65 15 -65 8 0 15 -4 15 -10 0 -5 -7 -10
-15 -10 -9 0 -15 -10 -15 -26 0 -31 -23 -28 -28 4 -3 19 -10 22 -48 22 -25 0
-44 5 -44 11 0 19 91 139 106 139 11 0 14 -16 14 -65z m168 49 c26 -18 29 -46
6 -65 -14 -11 -14 -13 0 -21 9 -5 16 -22 16 -38 0 -45 -54 -73 -104 -54 -31
12 -16 24 29 24 32 0 47 5 51 15 9 22 -14 45 -43 45 -31 0 -25 22 8 30 32 8
38 45 8 53 -12 3 -30 2 -40 -4 -24 -12 -35 6 -12 20 26 15 55 13 81 -5z m188
-9 c15 -23 15 -27 1 -49 -14 -21 -14 -26 -2 -36 41 -34 -7 -99 -62 -85 -15 3
-31 12 -35 18 -12 19 -9 54 6 66 12 10 12 16 -2 41 -16 27 -15 30 2 49 27 29
71 27 92 -4z m174 -40 c0 -51 3 -65 15 -65 8 0 15 -4 15 -10 0 -5 -7 -10 -15
-10 -9 0 -15 -9 -15 -25 0 -16 -6 -25 -15 -25 -9 0 -15 9 -15 25 0 23 -4 25
-45 25 -26 0 -45 5 -45 11 0 18 93 139 107 139 9 0 13 -18 13 -65z m174 49
c19 -19 20 -38 4 -64 -9 -15 -10 -23 -2 -28 40 -26 9 -92 -43 -92 -52 0 -84
60 -48 90 11 9 13 16 5 24 -16 16 -12 64 8 75 25 15 58 13 76 -5z m182 -5 c17
-19 18 -22 2 -49 -14 -25 -15 -30 -2 -41 23 -19 13 -61 -18 -78 -40 -23 -82
-5 -86 35 -2 18 3 36 12 43 13 11 12 16 -2 41 -16 27 -15 30 2 49 11 12 31 21
46 21 15 0 35 -9 46 -21z m604 9 c0 -7 -12 -14 -27 -15 -25 -1 -53 -25 -53
-45 0 -4 18 -8 40 -8 34 0 42 -4 52 -25 27 -59 -33 -116 -86 -82 -47 31 -43
151 6 175 32 15 68 15 68 0z m176 -9 c17 -19 18 -22 2 -49 -14 -25 -15 -30 -2
-41 9 -7 14 -25 12 -43 -6 -62 -110 -62 -116 0 -2 18 3 36 12 43 13 11 12 16
-2 42 -16 29 -16 31 7 50 30 25 63 24 87 -2z m258 8 c35 -26 37 -130 3 -164
-18 -19 -78 -22 -84 -5 -3 8 1 10 11 6 22 -8 66 22 66 44 0 15 -6 18 -30 14
-39 -6 -60 12 -60 51 0 56 51 85 94 54z m180 -3 c24 -23 19 -58 -11 -96 -16
-18 -31 -34 -35 -36 -22 -10 -3 -22 32 -22 29 0 40 -4 40 -15 0 -12 -13 -15
-59 -15 -33 0 -63 5 -66 11 -4 5 14 32 39 59 31 33 46 58 46 76 0 25 -2 26
-40 21 -41 -5 -49 0 -28 21 17 17 64 15 82 -4z m182 -5 c14 -16 19 -36 18 -76
0 -48 -4 -59 -28 -79 -29 -25 -76 -32 -76 -11 0 6 12 13 26 14 29 1 39 9 48
38 5 19 3 21 -31 17 -27 -3 -40 0 -50 14 -47 64 40 142 93 83z m174 1 c23 -23
27 -100 7 -140 -15 -29 -72 -49 -89 -32 -9 9 -7 12 8 12 28 0 64 28 64 49 0
14 -6 17 -30 13 -39 -6 -60 12 -60 51 0 60 59 88 100 47z m171 10 c20 -11 27
-64 10 -75 -6 -3 -3 -17 6 -34 20 -33 12 -57 -21 -72 -34 -16 -74 -3 -88 26
-9 21 -8 29 7 46 16 16 17 24 7 39 -33 54 20 101 79 70z m187 -2 c-3 -7 -15
-14 -29 -16 -23 -3 -49 -27 -49 -44 0 -4 18 -8 40 -8 29 0 42 -5 50 -19 16
-30 12 -59 -10 -81 -28 -28 -64 -25 -90 8 -31 39 -24 116 14 149 29 25 81 32
74 11z m-3778 -53 c0 -8 -7 -15 -15 -15 -8 0 -15 7 -15 15 0 8 7 15 15 15 8 0
15 -7 15 -15z m295 -60 c0 -5 -15 -11 -32 -13 -25 -3 -33 1 -33 13 0 12 8 16
33 13 17 -2 32 -7 32 -13z m1935 0 c0 -10 -11 -15 -35 -15 -24 0 -35 5 -35 15
0 10 11 15 35 15 24 0 35 -5 35 -15z m-2230 -55 c0 -11 -7 -20 -15 -20 -8 0
-15 9 -15 20 0 11 7 20 15 20 8 0 15 -9 15 -20z m798 3 c-5 -25 -28 -28 -28
-4 0 12 6 21 16 21 9 0 14 -7 12 -17z m1936 9 c8 -13 -11 -35 -23 -28 -16 10
-14 36 3 36 8 0 17 -4 20 -8z m-789 -24 c-15 -48 -41 -52 -29 -4 3 14 13 26
21 26 10 0 12 -6 8 -22z m-1725 -312 c0 -59 -4 -108 -10 -111 -5 -3 -10 -2
-10 4 0 7 -8 7 -24 1 -53 -20 -95 26 -81 89 8 39 28 54 65 49 29 -4 30 -3 30
34 0 27 4 38 15 38 12 0 15 -18 15 -104z m1320 38 l0 -66 26 31 c35 42 63 42
32 0 l-23 -30 23 -41 c30 -50 19 -63 -16 -20 -32 39 -40 40 -44 7 -2 -14 -7
-27 -13 -28 -6 -1 -11 40 -13 106 -2 91 0 107 13 107 12 0 15 -13 15 -66z
m570 28 c0 -37 1 -38 33 -34 46 5 59 -14 55 -82 -4 -77 -22 -76 -26 2 -3 62
-3 63 -30 60 -25 -3 -27 -7 -32 -61 -8 -97 -25 -71 -28 46 -2 91 0 107 13 107
11 0 15 -11 15 -38z m-2606 12 c26 -10 8 -24 -22 -18 -19 4 -33 0 -41 -10 -17
-20 -4 -38 39 -56 33 -14 49 -53 33 -78 -16 -26 -61 -36 -91 -21 -27 14 -26
14 21 17 42 3 47 6 47 27 0 17 -10 28 -37 42 -82 40 -34 130 51 97z m1300 -10
c26 -25 19 -61 -19 -103 -19 -21 -35 -41 -35 -45 0 -3 18 -6 40 -6 29 0 40 -4
40 -15 0 -12 -13 -15 -59 -15 -33 0 -62 4 -66 9 -3 6 15 33 40 61 46 52 58 93
29 104 -8 3 -25 1 -36 -5 -25 -13 -35 -5 -18 16 16 20 64 19 84 -1z m177 6
c22 -12 25 -52 5 -69 -13 -11 -12 -15 5 -32 21 -21 23 -32 9 -59 -21 -39 -102
-32 -115 10 -4 13 0 31 10 47 12 18 14 28 6 36 -6 6 -11 21 -11 34 0 37 50 55
91 33z m275 -15 c20 -31 8 -68 -38 -111 l-30 -29 44 -5 c62 -7 49 -25 -19 -25
-31 0 -58 5 -60 10 -1 6 17 33 42 60 46 52 57 88 29 99 -8 3 -24 1 -35 -4 -27
-15 -47 -1 -24 17 31 22 72 16 91 -12z m758 -41 c-43 -114 -53 -136 -63 -129
-6 3 1 36 18 83 43 113 42 112 57 112 10 0 7 -16 -12 -66z m-2324 1 c7 -8 12
-34 12 -57 -1 -51 -30 -81 -68 -72 -22 6 -24 3 -24 -30 0 -25 -4 -36 -15 -36
-12 0 -15 18 -15 103 l0 103 49 2 c33 1 53 -3 61 -13z m174 -7 c27 -38 20 -48
-30 -48 -41 0 -45 -2 -42 -22 2 -19 10 -24 41 -26 43 -4 49 -17 10 -27 -58
-14 -104 62 -72 122 17 31 71 32 93 1z m164 10 c5 -7 13 -23 16 -35 7 -22 4
-23 -38 -23 -25 0 -48 -5 -51 -10 -12 -19 16 -40 51 -40 19 0 34 -4 34 -10 0
-18 -76 -16 -97 2 -16 13 -17 82 -3 109 12 22 71 27 88 7z m272 -3 c0 -8 -6
-15 -14 -15 -17 0 -28 14 -19 24 12 12 33 6 33 -9z m1591 -13 c12 -32 8 -118
-6 -115 -5 2 -12 29 -15 60 -5 54 -7 58 -30 58 -23 0 -25 -4 -30 -59 -7 -83
-28 -86 -32 -4 -3 60 -4 63 -28 63 -23 0 -25 -4 -30 -58 -7 -81 -24 -76 -28 9
l-3 70 96 1 c95 1 96 1 106 -25z m-1591 -96 c0 -8 -4 -17 -8 -20 -13 -8 -35
11 -28 23 10 16 36 14 36 -3z m800 1 c0 -19 -10 -27 -26 -20 -21 8 -17 33 6
33 11 0 20 -6 20 -13z m5460 -354 c0 -5 18 -43 39 -84 37 -70 56 -131 53 -172
0 -11 4 -17 11 -14 16 6 43 -17 87 -72 29 -37 35 -54 38 -105 4 -57 -2 -80
-36 -149 -2 -5 9 -7 25 -6 24 3 37 -4 62 -31 17 -19 31 -38 31 -42 0 -5 6 -8
14 -8 8 0 19 -14 25 -30 5 -17 18 -33 28 -37 10 -3 30 -20 45 -36 l27 -30 11
27 c15 40 12 83 -5 90 -11 4 -15 22 -15 74 0 62 2 70 23 79 12 6 31 7 42 2 11
-4 32 -8 48 -8 15 -1 27 -5 27 -11 0 -5 16 -16 35 -25 38 -19 71 -58 110 -131
23 -42 26 -64 31 -184 5 -112 2 -152 -14 -233 -31 -148 -103 -374 -123 -387
-13 -9 -96 -191 -109 -240 -27 -102 -136 -290 -168 -290 -4 0 -23 -15 -42 -33
-19 -18 -60 -43 -90 -55 -66 -26 -136 -33 -132 -14 1 7 -6 15 -15 19 -10 3
-34 24 -54 45 -31 32 -42 38 -78 38 -23 0 -40 4 -37 9 14 22 -7 41 -46 41 -30
0 -41 4 -45 18 -2 10 -18 23 -34 29 -37 14 -37 37 1 53 34 14 34 14 19 41 -6
11 -13 48 -17 82 l-7 62 -52 3 c-43 2 -52 0 -56 -15 -3 -11 -5 -6 -6 12 -1 48
9 75 30 75 14 0 19 7 19 25 0 16 -6 25 -15 25 -10 0 -15 11 -15 35 0 24 5 35
15 35 12 0 15 15 15 75 0 60 3 75 15 75 10 0 15 11 15 35 0 19 4 35 9 35 5 0
20 17 32 38 30 49 29 48 39 32 8 -12 13 -13 30 -2 11 6 26 12 35 12 8 0 12 6
9 14 -7 19 38 33 146 46 47 5 103 14 125 20 81 20 103 14 154 -38 25 -26 63
-74 84 -105 20 -31 43 -57 51 -57 20 0 54 42 39 47 -15 5 -18 83 -3 83 17 0
11 58 -6 68 -13 7 -16 23 -13 91 2 44 1 81 -2 81 -3 0 -21 16 -40 35 -39 40
-49 43 -49 15 0 -11 -9 -25 -20 -32 -14 -9 -20 -24 -20 -50 0 -20 -4 -40 -10
-43 -5 -3 -10 -15 -10 -26 0 -14 -7 -19 -24 -19 -14 0 -28 5 -31 10 -3 6 -14
10 -25 10 -10 0 -42 18 -71 40 -29 21 -65 42 -81 46 -16 3 -41 12 -56 20 -15
8 -34 14 -43 14 -8 0 -24 7 -35 15 -10 8 -29 15 -41 15 -13 0 -23 4 -23 8 0 5
-11 12 -25 18 -25 9 -26 9 -8 34 29 40 41 84 30 111 -14 35 -9 110 8 129 8 9
15 24 15 34 0 21 63 49 90 41 10 -3 24 -22 30 -41 11 -33 14 -35 53 -33 71 2
74 5 72 55 -2 65 -31 87 -102 79 -46 -4 -54 -2 -67 17 -9 12 -16 18 -16 13 -1
-17 -29 39 -30 58 0 11 -8 17 -24 17 -14 0 -28 5 -31 10 -3 6 -15 10 -25 10
-11 0 -24 9 -30 20 -9 17 -7 20 16 26 15 4 35 2 46 -5 17 -10 18 -7 18 57 0
45 6 81 17 103 11 22 18 59 18 104 1 39 4 75 8 82 4 6 3 14 -3 18 -5 3 -10 13
-10 22 0 10 12 3 35 -20 19 -19 35 -39 35 -44z m-747 -7 c3 4 19 2 35 -4 18
-6 35 -6 46 0 29 16 69 -17 64 -53 -3 -16 0 -30 6 -33 6 -2 -5 -3 -24 -1 -19
1 -43 6 -52 10 -10 4 -18 3 -18 -2 0 -5 -25 -9 -55 -9 -50 -1 -53 0 -44 18 7
14 7 23 -2 34 -9 11 -9 14 1 14 7 0 10 6 7 14 -7 19 3 28 18 16 7 -5 15 -7 18
-4z m915 -68 c15 -19 -4 -58 -27 -58 -22 0 -39 39 -26 59 9 15 40 14 53 -1z
m-401 -605 c-3 -10 -5 -2 -5 17 0 19 2 27 5 18 2 -10 2 -26 0 -35z m-4 -75 c3
-29 8 -65 12 -80 6 -24 4 -28 -12 -28 -16 0 -19 5 -15 25 3 18 0 25 -12 25
-22 0 -31 44 -16 80 19 47 37 37 43 -22z m-34 -257 c7 -13 6 -24 -4 -37 -13
-18 -15 -18 -41 8 l-28 27 25 10 c34 14 37 13 48 -8z m50 -7 c-15 -18 -22 -13
-13 10 3 9 10 13 16 10 5 -3 4 -12 -3 -20z m305 -29 c14 -13 26 -28 26 -34 0
-18 -18 -21 -34 -5 -10 9 -24 13 -34 9 -22 -8 -27 -7 -28 5 -3 21 -4 22 -17
12 -9 -8 -15 -5 -23 11 -9 21 -7 22 37 24 38 2 52 -3 73 -22z m-6410 -21 c12
-5 14 -10 6 -19 -7 -9 -6 -21 4 -40 8 -16 13 -33 10 -37 -8 -13 16 -68 30 -69
6 0 2 -4 -9 -9 -11 -5 -52 -9 -90 -9 -57 -1 -74 3 -87 18 -12 14 -13 22 -5 31
9 9 8 15 -6 24 -41 25 -50 33 -41 39 11 6 74 -21 87 -38 6 -6 7 -3 4 7 -3 9 1
19 9 22 20 8 46 -4 40 -19 -5 -13 14 -25 40 -25 22 0 17 36 -8 52 -16 11 -19
19 -13 34 4 10 7 25 6 32 -2 14 1 15 23 6z m1386 -55 c0 -12 -7 -19 -20 -19
-19 0 -28 28 -14 43 11 11 34 -5 34 -24z m-1868 -62 c14 -7 22 -19 20 -26 -3
-8 0 -11 7 -7 6 4 16 4 22 0 7 -4 -5 -12 -28 -20 -34 -12 -45 -11 -88 4 -53
19 -71 42 -33 42 13 0 30 5 38 10 20 13 33 12 62 -3z m126 -16 c3 -8 -1 -12
-9 -9 -7 2 -15 10 -17 17 -3 8 1 12 9 9 7 -2 15 -10 17 -17z m521 -30 c17 -11
5 -34 -42 -79 -39 -38 -51 -31 -41 23 9 49 50 77 83 56z m409 -50 c2 -6 12
-11 23 -11 39 0 43 -35 26 -277 -9 -125 -26 -394 -39 -598 l-22 -370 -40 -35
c-22 -19 -67 -64 -100 -98 -77 -81 -175 -140 -245 -149 -28 -3 -51 -2 -51 3 1
21 18 33 57 42 51 12 80 34 137 104 29 34 50 74 61 112 10 33 31 89 47 125 58
129 108 301 115 391 7 104 -12 180 -88 350 -63 143 -63 143 -51 180 13 35 1
52 -53 71 l-35 13 22 23 c12 13 19 25 17 27 -2 3 -33 -2 -68 -10 -35 -8 -65
-13 -67 -11 -9 9 43 67 62 67 11 0 45 12 75 27 30 14 68 30 84 34 40 11 128 4
133 -10z m-318 -16 c-33 -19 -50 -18 -26 0 11 8 27 15 35 15 10 -1 7 -6 -9
-15z m7081 2 c-1 -12 -15 -9 -19 4 -3 6 1 10 8 8 6 -3 11 -8 11 -12z m-1354
-204 c-3 -10 -5 -2 -5 17 0 19 2 27 5 18 2 -10 2 -26 0 -35z m89 -366 c20 -12
17 -27 -6 -27 -17 0 -20 6 -19 38 1 21 3 29 6 17 3 -11 11 -24 19 -28z m1034
-833 c0 -8 -7 -14 -15 -14 -15 0 -21 21 -9 33 10 9 24 -2 24 -19z m-1118 -39
l-4 -45 -44 0 -44 0 0 39 c0 36 -3 40 -27 44 -16 2 6 5 47 6 l75 1 -3 -45z
m1064 -49 c23 -6 24 -10 24 -76 0 -56 -3 -70 -15 -70 -12 0 -15 -19 -15 -112
0 -62 -4 -108 -8 -102 -6 9 -68 38 -82 39 -3 0 -11 4 -17 8 -24 15 -114 21
-123 8 -5 -10 -8 -9 -13 2 -7 18 0 28 40 56 18 12 36 33 39 46 3 13 12 26 20
29 24 9 15 26 -13 27 -19 0 -23 3 -12 7 31 14 74 55 62 59 -15 5 -18 33 -4 33
5 0 13 9 16 20 4 13 18 23 36 27 25 5 29 10 31 42 l1 36 4 -37 c3 -28 9 -37
29 -42z m-2498 7 c-10 -2 -26 -2 -35 0 -10 3 -2 5 17 5 19 0 27 -2 18 -5z m32
-43 c0 -16 -4 -30 -10 -30 -5 0 -10 14 -10 30 0 17 5 30 10 30 6 0 10 -13 10
-30z m50 -53 c0 -7 14 -18 30 -24 21 -8 30 -18 30 -33 0 -12 7 -28 15 -36 8
-9 15 -27 15 -41 0 -20 3 -23 13 -14 11 8 18 6 32 -9 10 -11 22 -17 26 -14 5
3 12 -2 16 -11 3 -10 0 -21 -8 -26 -10 -6 -6 -9 13 -9 15 0 42 -12 60 -28 18
-16 47 -32 63 -36 34 -8 105 -72 105 -95 0 -8 3 -11 7 -8 3 4 15 0 25 -10 10
-9 18 -12 18 -7 1 5 9 19 20 32 l19 24 52 -28 c28 -16 61 -41 74 -56 13 -15
28 -28 34 -28 6 0 11 -6 11 -12 0 -10 3 -9 9 1 12 19 79 6 107 -21 12 -10 28
-19 35 -18 27 4 39 0 39 -12 0 -7 27 -21 60 -32 70 -21 188 -106 232 -166 16
-22 34 -38 39 -34 5 3 9 0 9 -6 0 -7 18 -32 40 -57 22 -25 40 -50 40 -54 0
-17 37 -9 55 11 18 20 35 26 35 13 0 -5 -16 -18 -35 -31 -19 -12 -35 -27 -35
-32 0 -19 18 -10 59 31 29 30 40 47 36 60 -4 11 -2 19 4 19 6 0 11 -6 11 -12
0 -15 69 62 70 77 2 39 265 295 303 295 21 0 117 78 147 118 15 20 44 52 65
71 30 27 41 32 54 23 9 -5 15 -15 13 -21 -1 -7 4 -14 12 -17 11 -4 12 -10 2
-28 -14 -27 -115 -126 -129 -126 -10 0 -67 -61 -67 -73 0 -4 -22 -17 -50 -29
-27 -12 -50 -28 -50 -35 0 -15 16 -17 25 -3 10 16 45 12 45 -5 0 -8 -4 -15
-10 -15 -5 0 -10 -8 -10 -17 0 -9 -27 -43 -60 -75 -33 -31 -60 -60 -60 -63 0
-10 17 -5 39 13 11 9 39 31 60 47 21 17 47 42 57 57 10 15 22 24 26 22 16 -10
49 8 58 31 8 21 68 61 77 51 2 -2 -6 -15 -19 -27 -13 -13 -36 -42 -51 -64 -15
-22 -61 -83 -102 -135 -42 -52 -101 -129 -132 -170 -31 -41 -64 -82 -73 -90
-9 -8 -32 -37 -51 -65 -19 -27 -39 -56 -46 -65 -7 -8 -26 -33 -42 -55 -17 -22
-39 -51 -50 -65 -40 -50 -187 -238 -211 -269 -14 -18 -29 -38 -35 -44 -58 -67
-118 -143 -155 -192 -72 -98 -170 -217 -217 -263 -24 -24 -43 -49 -43 -56 0
-7 -15 -26 -33 -42 -19 -16 -36 -36 -39 -44 -5 -12 -9 -11 -21 5 -15 19 -16
18 -10 -17 4 -28 1 -41 -16 -59 -11 -13 -21 -28 -21 -33 0 -6 -16 -29 -35 -51
-20 -22 -39 -44 -43 -50 -24 -33 -108 -131 -116 -134 -12 -5 -38 -32 -61 -65
-35 -50 -69 -91 -87 -104 -10 -7 -18 -18 -18 -24 0 -6 -15 -27 -32 -47 -18
-21 -49 -57 -68 -81 -19 -23 -52 -61 -72 -84 -21 -23 -40 -49 -43 -58 -4 -10
-10 -18 -14 -18 -13 0 -61 -48 -62 -62 0 -7 -25 -33 -54 -58 -29 -25 -54 -49
-54 -54 -1 -5 -38 -46 -83 -91 -46 -44 -114 -116 -153 -159 -42 -47 -88 -87
-116 -102 -51 -26 -66 -22 -44 10 8 11 15 30 15 43 0 12 7 28 15 37 8 8 15 30
16 48 1 28 2 30 8 10 l6 -24 19 21 c17 19 17 21 2 27 -20 8 -21 40 -1 48 8 3
15 10 15 16 0 5 -7 10 -15 10 -8 0 -15 7 -15 15 0 22 -31 18 -37 -5 -3 -12
-14 -20 -27 -20 -28 -1 -74 -42 -82 -74 -3 -15 -17 -35 -30 -45 -13 -10 -24
-24 -24 -29 0 -7 -18 -9 -50 -5 l-50 6 0 -42 0 -41 -39 0 c-36 0 -40 -3 -44
-28 -4 -25 -4 -25 -6 6 -1 31 0 32 39 32 37 0 40 2 40 29 0 52 13 121 22 121
16 0 68 54 68 71 0 8 11 26 25 39 14 13 25 32 25 42 0 12 7 18 23 18 21 0 83
57 73 67 -6 7 -139 -66 -153 -83 -7 -10 -24 -14 -49 -12 l-38 3 41 41 c23 23
45 39 48 36 3 -4 3 1 0 11 -5 12 0 19 16 26 37 14 64 52 61 84 -3 23 1 28 27
33 27 6 31 11 32 43 1 20 3 28 6 18 5 -20 14 -22 31 -5 16 16 15 28 -3 28 -8
0 -15 5 -15 10 0 6 -18 10 -39 10 -23 0 -46 7 -55 16 -14 14 -14 18 -1 44 8
16 15 36 15 45 0 8 5 15 10 15 6 0 10 15 10 34 0 21 6 36 15 40 8 3 15 15 15
26 0 23 37 107 51 116 14 9 10 41 -6 48 -10 3 -17 -3 -21 -19 -3 -14 -13 -25
-20 -25 -8 0 -19 -11 -24 -24 -5 -13 -14 -27 -19 -31 -6 -3 -11 -17 -11 -30 0
-12 -6 -25 -12 -28 -7 -2 -28 -35 -47 -71 -19 -37 -38 -69 -42 -72 -5 -3 -9
-14 -9 -25 0 -10 -9 -27 -20 -36 -11 -10 -20 -25 -20 -35 0 -10 -7 -18 -15
-18 -10 0 -15 -10 -15 -32 0 -47 -37 -118 -62 -118 -21 0 -57 -36 -58 -57 0
-7 -6 -13 -14 -13 -7 0 -19 -7 -26 -15 -7 -8 -16 -15 -21 -15 -5 0 -9 7 -9 15
0 8 -4 15 -10 15 -5 0 -10 16 -10 35 0 31 3 35 25 35 26 0 26 0 23 78 -2 60
-6 77 -18 77 -11 0 -16 -13 -18 -47 -3 -46 -5 -48 -32 -48 -27 0 -29 2 -32 48
-3 47 -3 47 -40 50 -35 3 -38 6 -38 33 0 19 5 29 15 29 11 0 15 12 15 45 0 38
-3 45 -20 45 -11 0 -20 -4 -20 -10 0 -5 -16 -10 -35 -10 l-35 0 0 -105 c0 -79
-3 -105 -13 -105 -7 0 -20 -9 -30 -20 -28 -33 -35 -23 -30 40 l6 60 -47 0
c-43 0 -46 2 -46 26 0 34 22 54 59 54 28 0 31 3 31 30 0 17 5 30 13 30 26 1
67 46 65 70 -2 17 4 28 19 35 17 7 24 21 29 55 8 61 12 72 13 33 1 -40 11 -41
48 -7 26 24 27 27 10 38 -10 8 -17 26 -17 45 0 20 -5 31 -14 31 -7 0 -17 10
-20 22 -6 23 -6 23 -22 3 -14 -18 -13 -20 6 -23 29 -5 22 -36 -9 -40 -13 -2
-33 1 -45 7 -12 6 -34 12 -51 14 -26 4 -26 4 8 6 29 1 37 5 37 20 0 11 9 23
20 26 11 3 20 15 20 26 0 10 9 28 20 39 11 11 20 25 20 30 0 6 4 10 8 10 5 0
22 11 38 25 16 14 37 28 47 31 9 3 17 10 17 15 0 5 11 9 25 9 16 0 43 19 83
59 33 32 69 62 81 66 11 3 21 14 21 22 0 22 99 113 122 113 11 0 28 15 40 36
11 19 32 40 44 45 21 7 24 15 24 59 l0 50 -49 0 c-48 0 -73 -13 -116 -61 -5
-6 -25 -25 -42 -42 -18 -17 -33 -36 -33 -43 0 -7 -8 -10 -18 -7 -13 3 -23 -8
-40 -41 -12 -26 -27 -45 -34 -44 -6 2 -16 -12 -21 -29 -5 -18 -15 -33 -21 -33
-6 0 -24 -16 -41 -35 -21 -24 -38 -35 -57 -35 -18 0 -28 -5 -28 -14 0 -24 -21
-30 -27 -7 -3 12 -9 21 -14 21 -5 0 -9 50 -9 110 0 91 -3 110 -15 110 -12 0
-15 -15 -15 -75 0 -59 -3 -75 -14 -75 -10 0 -16 -13 -18 -37 -2 -24 -8 -37
-15 -35 -10 1 -13 -18 -13 -73 0 -68 -2 -75 -20 -75 -17 0 -19 8 -22 73 l-3
72 -42 3 -43 3 0 69 c0 66 -1 70 -25 76 -21 5 -25 12 -25 40 0 25 -4 34 -16
34 -15 0 -16 -16 -10 -152 4 -84 12 -205 18 -269 9 -89 9 -137 -1 -210 -18
-135 -23 -161 -30 -154 -6 7 -10 63 -30 377 -5 92 -13 173 -18 180 -10 16 -31
131 -32 176 -1 18 -5 40 -10 50 -6 9 -12 30 -16 45 -5 23 -9 27 -20 17 -8 -6
-15 -21 -17 -33 -2 -16 -11 -23 -30 -25 -16 -2 -28 2 -28 8 0 6 -4 9 -9 5 -14
-8 -23 29 -26 102 -2 35 -9 71 -16 79 -7 9 -14 23 -14 32 -1 10 -17 68 -36
129 -26 88 -31 119 -23 140 11 32 29 40 31 14 1 -10 13 -30 26 -45 14 -15 31
-41 38 -59 7 -17 16 -34 19 -37 3 -3 19 -44 35 -92 28 -85 54 -122 39 -55 -4
17 -8 50 -10 72 -2 22 -8 72 -13 110 -6 39 -10 80 -10 93 -1 15 -7 22 -21 22
-18 0 -20 7 -20 65 0 55 -3 65 -17 65 -12 0 -14 3 -7 8 7 4 14 18 16 32 l3 25
26 -27 c15 -16 36 -28 48 -28 17 0 21 -6 21 -29 0 -16 -5 -31 -12 -33 -24 -8
1 -38 31 -38 17 0 34 -6 38 -14 5 -8 34 -17 71 -21 l62 -7 0 36 c0 20 5 36 10
36 20 0 9 38 -15 54 -23 15 -25 22 -25 96 0 63 -3 80 -15 80 -11 0 -15 -18
-18 -77 -2 -65 -3 -59 -5 35 -2 106 -1 112 18 112 17 0 20 7 20 39 0 22 -5 42
-12 44 -7 3 4 6 25 6 34 1 37 3 37 31 0 27 3 30 30 30 30 0 30 -1 30 -55 l0
-55 76 0 c67 0 76 -2 81 -20 9 -34 33 -24 33 14 0 21 6 36 15 40 9 3 15 18 15
40 0 21 -6 36 -15 40 -9 3 -15 18 -15 35 0 16 6 31 15 35 9 3 15 18 15 40 0
32 -3 35 -32 39 -29 3 -27 4 10 5 40 2 42 4 42 32 0 27 3 30 30 30 28 0 30 -3
30 -35 l0 -35 80 0 80 0 0 35 c0 33 2 35 35 35 l35 0 0 -50 0 -50 39 0 c29 0
41 5 44 18 3 9 5 -18 6 -60 1 -62 4 -78 16 -78 10 0 15 -11 15 -35 0 -24 -5
-35 -15 -35 -8 0 -15 -6 -15 -13 0 -14 56 -67 71 -67 5 0 9 -15 9 -34 0 -19 5
-38 10 -41 6 -3 10 -19 10 -35 0 -16 -4 -32 -10 -35 -5 -3 -10 -21 -10 -39 0
-28 4 -34 25 -38 19 -4 25 -1 25 12 0 9 3 45 6 79 6 52 5 61 -10 61 -12 0 -16
10 -16 40 0 22 -4 40 -9 40 -4 0 -10 82 -13 182 -3 125 -8 183 -16 186 -8 2
-12 29 -12 73 0 55 3 69 15 69 12 0 14 4 5 19 -18 34 6 33 62 -2 29 -19 63
-37 76 -41 12 -4 22 -12 22 -18 0 -6 9 -8 20 -5 22 6 28 -8 8 -17 -7 -3 -2 -4
11 -3 14 1 26 7 28 12 3 10 -88 55 -112 55 -20 0 -135 116 -135 135 0 24 22
13 45 -22 21 -31 103 -83 131 -83 13 0 14 3 5 14 -10 11 -6 16 16 24 25 9 26
11 6 11 -22 1 -23 5 -23 71 0 39 2 70 4 70 2 0 11 3 19 6 9 3 16 -3 20 -15 4
-15 13 -21 35 -21 17 0 34 -4 37 -10 3 -5 22 -10 41 -10 19 0 34 -4 34 -9 0
-19 64 -70 75 -61 18 15 38 -5 31 -33 -5 -20 -1 -26 16 -30 23 -6 73 26 83 54
3 9 19 31 35 49 38 42 39 68 3 72 -17 2 -27 10 -29 22 -1 10 -7 23 -13 29 -6
6 -11 19 -11 28 0 10 -8 24 -18 31 -28 19 -38 151 -14 179 19 21 52 26 52 6z
m2145 -97 c-3 -5 -11 -10 -16 -10 -6 0 -7 5 -4 10 3 6 11 10 16 10 6 0 7 -4 4
-10z m-2488 -162 c-2 -13 -4 -5 -4 17 -1 22 1 32 4 23 2 -10 2 -28 0 -40z
m1540 0 c-2 -13 -4 -5 -4 17 -1 22 1 32 4 23 2 -10 2 -28 0 -40z m453 7 c0
-10 11 -15 35 -15 19 0 35 -4 35 -10 0 -5 9 -10 20 -10 11 0 20 -3 20 -8 0 -4
-9 -13 -20 -20 -11 -7 -20 -21 -20 -32 0 -21 -34 -29 -45 -10 -16 25 -26 7
-19 -35 7 -51 -9 -66 -52 -46 -24 11 -25 10 -22 -27 3 -34 1 -37 -24 -40 -21
-3 -29 -10 -34 -30 -10 -46 -14 -53 -24 -47 -17 11 -50 -15 -50 -39 0 -13 -14
-36 -35 -55 -19 -17 -35 -38 -35 -47 0 -10 -7 -14 -20 -12 -10 2 -25 -5 -32
-15 -12 -16 -17 -16 -53 -4 -26 10 -39 20 -37 30 1 8 -13 24 -31 36 -18 11
-39 32 -45 46 -8 17 -18 24 -34 22 -17 -1 -24 4 -26 21 -2 14 -10 22 -23 22
-10 0 -19 4 -19 10 0 5 -18 20 -40 32 -22 13 -43 31 -46 41 -3 9 -9 17 -13 17
-5 0 -20 11 -36 25 -20 20 -30 23 -40 15 -9 -8 -15 -8 -20 0 -3 5 1 10 9 10
13 0 16 13 16 70 l0 70 80 0 c79 0 80 0 80 -25 0 -22 4 -25 35 -25 19 0 35 -4
35 -10 0 -6 33 -10 80 -10 l80 0 0 35 c0 33 2 35 35 35 33 0 35 -2 35 -35 0
-34 1 -35 40 -35 39 0 40 1 40 35 l0 34 73 3 c66 3 72 5 75 26 3 18 10 22 38
22 24 0 34 -5 34 -15z m811 -52 c13 -15 12 -15 -8 -4 -24 12 -29 21 -14 21 5
0 15 -7 22 -17z m-2921 -33 c0 -11 -7 -20 -15 -20 -18 0 -19 12 -3 28 16 16
18 15 18 -8z m3005 -23 c4 5 5 2 1 -5 -9 -14 -46 2 -46 20 0 6 8 4 18 -5 10
-10 22 -14 27 -10z m164 -58 c69 0 81 -2 61 -11 -34 -14 -132 -2 -175 21 -20
10 -30 21 -23 23 7 3 21 -4 32 -14 16 -14 37 -18 105 -19z m196 31 c-3 -5 -13
-10 -21 -10 -8 0 -12 5 -9 10 3 6 13 10 21 10 8 0 12 -4 9 -10z m-863 -31
c-17 -17 -34 -38 -37 -48 -3 -10 -17 -24 -30 -31 -14 -7 -25 -17 -25 -22 0 -5
-9 -18 -19 -29 -23 -25 -41 -7 -19 19 8 9 20 29 28 44 15 32 96 98 119 98 10
0 4 -10 -17 -31z m811 14 c-7 -2 -21 -2 -30 0 -10 3 -4 5 12 5 17 0 24 -2 18
-5z m-3423 -37 c0 -3 -4 -8 -10 -11 -5 -3 -10 -1 -10 4 0 6 5 11 10 11 6 0 10
-2 10 -4z m3870 -546 c0 -16 -4 -30 -10 -30 -5 0 -10 14 -10 30 0 17 5 30 10
30 6 0 10 -13 10 -30z m-182 -27 c-10 -2 -26 -2 -35 0 -10 3 -2 5 17 5 19 0
27 -2 18 -5z m199 -230 c-1 -43 -3 -10 -3 72 0 83 2 118 3 78 2 -40 2 -107 0
-150z m-337 147 c0 -5 20 -10 45 -10 25 0 45 5 45 10 0 6 14 10 30 10 28 0 30
-2 30 -40 0 -39 -1 -40 -35 -40 -28 0 -35 -4 -35 -20 0 -17 7 -20 39 -20 29 0
41 5 44 18 3 9 5 1 6 -19 1 -23 7 -39 16 -43 11 -4 15 -22 15 -76 0 -68 1 -70
25 -70 22 0 25 -4 25 -35 0 -23 -4 -33 -13 -30 -9 4 -11 -7 -9 -40 2 -25 8
-45 13 -45 5 0 9 -49 9 -110 0 -95 -2 -110 -16 -110 -14 0 -15 -10 -9 -75 5
-54 3 -75 -5 -75 -15 0 -9 -42 7 -47 6 -2 13 6 16 19 3 15 5 10 6 -14 0 -20
-3 -40 -9 -43 -5 -3 -10 -26 -10 -51 0 -24 -4 -44 -9 -44 -9 0 -9 -79 0 -95 3
-5 4 -29 1 -53 -3 -35 -8 -43 -30 -49 -16 -4 -27 -2 -30 5 -5 15 -29 16 -34 1
-3 -8 -14 -8 -41 -1 -22 6 -39 7 -43 1 -3 -5 4 -9 15 -9 14 0 21 -6 21 -20 0
-23 10 -26 28 -8 20 20 62 -33 62 -77 0 -35 0 -35 -46 -35 l-45 0 3 -37 c3
-34 6 -38 34 -41 30 -3 32 -5 38 -59 3 -30 3 -77 0 -104 -6 -43 -9 -49 -30
-49 -22 0 -24 -4 -24 -45 0 -41 2 -45 25 -45 24 0 25 -2 25 -70 l0 -70 -40 0
c-39 0 -40 1 -40 35 0 22 -6 38 -15 41 -9 4 -15 19 -15 40 0 24 -5 34 -15 34
-8 0 -15 6 -15 13 0 7 -11 24 -24 38 -19 21 -26 42 -32 98 -3 39 -10 71 -13
71 -17 0 -41 62 -41 104 0 39 -3 46 -20 46 -18 0 -20 7 -20 70 0 53 -4 71 -16
78 -13 7 -17 27 -18 96 -1 75 -3 86 -18 86 -10 0 -18 7 -18 15 0 13 7 15 35 9
31 -5 35 -4 41 20 7 28 24 36 24 11 0 -8 5 -15 10 -15 15 0 12 30 -6 47 -13
14 -17 14 -25 2 -7 -10 -9 3 -8 41 2 78 3 77 -36 84 -39 8 -46 25 -14 33 12 4
18 11 15 20 -3 8 -6 28 -6 44 0 19 -5 29 -15 29 -10 0 -15 -10 -15 -34 0 -19
-4 -38 -10 -41 -5 -3 -10 -20 -10 -36 0 -17 -5 -40 -12 -52 -6 -12 -13 -51
-14 -87 -1 -36 -5 -144 -10 -241 -5 -129 -4 -178 5 -183 14 -9 15 -146 1 -146
-5 0 -10 -22 -10 -48 0 -36 5 -54 20 -67 24 -22 26 -35 5 -35 -20 0 -19 -13 9
-73 22 -50 29 -68 61 -170 32 -102 -9 -207 -81 -207 -27 0 -34 -4 -34 -20 0
-16 -7 -20 -35 -20 -31 0 -35 3 -35 25 0 23 -4 25 -40 25 l-40 0 0 -40 0 -40
-55 0 -55 0 0 40 c0 33 -3 40 -20 40 -17 0 -20 -7 -20 -40 l0 -40 -40 0 -40 0
0 148 c0 168 7 222 26 222 11 0 14 18 14 75 0 60 3 75 15 75 10 0 15 11 15 35
0 19 5 35 10 35 6 0 10 16 10 35 0 24 5 35 15 35 11 0 15 12 15 45 0 33 -4 45
-15 45 -8 0 -15 7 -15 16 0 8 -4 12 -10 9 -5 -3 -10 -28 -10 -56 0 -42 -3 -49
-20 -49 -12 0 -20 7 -20 18 1 38 21 191 35 267 9 44 22 116 30 160 7 44 21
112 30 150 10 39 22 103 28 143 6 39 14 72 19 72 4 0 8 9 8 20 0 11 14 33 30
48 19 18 30 39 30 56 0 21 5 26 25 26 23 0 25 3 25 50 0 28 5 50 10 50 6 0 10
-4 10 -10 0 -5 7 -10 15 -10 10 0 15 10 15 34 0 21 6 36 15 40 9 3 15 19 15
41 0 28 4 35 20 35 17 0 20 7 20 40 0 51 29 80 82 80 l38 0 0 -95 c0 -78 -3
-95 -15 -95 -12 0 -15 -16 -15 -80 0 -73 2 -80 20 -80 19 0 20 -4 14 -85 l-7
-85 71 0 c68 0 72 -1 78 -24 4 -16 11 -23 20 -19 9 3 14 -2 15 -18 0 -13 3
-18 6 -11 7 17 23 15 23 -3 0 -8 5 -15 10 -15 6 0 10 4 10 10 0 5 7 7 15 4 9
-4 15 0 15 9 0 8 -7 17 -15 21 -9 3 -15 19 -15 41 0 19 -4 35 -10 35 -6 0 -10
35 -10 84 0 83 0 85 -32 110 -25 20 -29 26 -15 26 15 0 18 7 15 38 -2 30 -7
38 -25 40 -19 3 -23 10 -23 38 0 19 -4 34 -10 34 -6 0 -10 32 -10 75 0 64 -3
75 -17 75 -13 0 -11 6 10 28 21 22 27 38 27 75 l0 46 -67 4 -68 3 73 2 c42 1
72 -2 72 -8z m-290 -40 c0 -5 -4 -10 -10 -10 -5 0 -10 5 -10 10 0 6 5 10 10
10 6 0 10 -4 10 -10z m907 -92 c-2 -13 -4 -5 -4 17 -1 22 1 32 4 23 2 -10 2
-28 0 -40z m-955 -33 c0 -5 -5 -11 -11 -13 -6 -2 -11 4 -11 13 0 9 5 15 11 13
6 -2 11 -8 11 -13z m-22 -51 c0 -8 -5 -12 -10 -9 -6 4 -8 11 -5 16 9 14 15 11
15 -7z m707 -66 c-2 -13 -4 -5 -4 17 -1 22 1 32 4 23 2 -10 2 -28 0 -40z m300
0 c-2 -13 -4 -5 -4 17 -1 22 1 32 4 23 2 -10 2 -28 0 -40z m-1047 -8 c0 -5 -5
-10 -11 -10 -5 0 -7 5 -4 10 3 6 8 10 11 10 2 0 4 -4 4 -10z m30 -50 c0 -5
-13 -10 -30 -10 -16 0 -30 5 -30 10 0 6 14 10 30 10 17 0 30 -4 30 -10z m-50
-50 c0 -5 -2 -10 -4 -10 -3 0 -8 5 -11 10 -3 6 -1 10 4 10 6 0 11 -4 11 -10z
m-4350 -51 c0 -5 -7 -9 -15 -9 -9 0 -15 9 -15 21 0 18 2 19 15 9 8 -7 15 -16
15 -21z m4327 -1 c-3 -8 -6 -5 -6 6 -1 11 2 17 5 13 3 -3 4 -12 1 -19z m-4366
-178 c4 -3 24 -50 44 -104 34 -91 43 -128 61 -251 8 -52 -13 -254 -27 -271
-16 -20 -37 -17 -44 6 -3 11 -15 20 -26 20 -14 0 -19 7 -19 25 0 14 -8 29 -20
35 -11 6 -20 17 -20 25 0 8 -9 24 -19 34 -29 29 -31 55 -5 59 18 3 27 14 52
65 2 4 -3 7 -11 7 -10 0 -16 18 -21 63 -3 34 -11 89 -16 122 -6 33 -13 80 -15
104 -3 24 -9 49 -13 55 -16 19 -24 166 -11 182 9 12 20 -3 58 -78 25 -51 49
-95 52 -98z m89 71 c0 -20 5 -42 12 -49 6 -6 8 -15 4 -19 -11 -11 -26 18 -26
51 0 18 -9 35 -25 48 -29 23 -32 43 -8 57 14 7 20 4 30 -21 7 -17 13 -47 13
-67z m5408 -13 c-1 -80 -3 -93 -5 -45 -3 55 -7 68 -18 63 -9 -3 -15 1 -15 10
0 10 6 14 15 10 12 -4 15 3 15 34 0 22 2 40 5 40 3 0 4 -51 3 -112z m-1138 23
c0 -11 -4 -23 -10 -26 -6 -4 -10 5 -10 19 0 14 5 26 10 26 6 0 10 -9 10 -19z
m2070 -55 c0 -7 12 -34 26 -59 14 -26 26 -59 26 -74 1 -35 -20 -112 -37 -139
-45 -70 -94 -178 -105 -228 -10 -50 -10 -60 5 -76 14 -16 14 -18 0 -23 -10 -4
-15 -20 -15 -46 0 -37 -7 -46 -94 -133 -98 -97 -214 -236 -241 -288 -20 -39
-50 -42 -40 -3 11 47 34 93 44 93 6 0 11 6 11 13 0 7 9 33 21 56 11 24 22 54
23 66 1 13 9 34 17 47 8 12 24 43 34 68 11 25 22 47 25 50 9 9 56 84 100 160
23 41 51 87 61 102 11 15 19 34 19 43 0 8 5 15 10 15 6 0 13 8 17 18 3 9 17
42 31 72 31 66 39 144 22 206 -12 41 -11 46 6 59 24 18 34 19 34 1z m-2544
-248 c-4 -18 -9 -42 -10 -54 -2 -11 -6 -26 -9 -32 -4 -5 -11 -36 -16 -69 -6
-32 -19 -98 -30 -148 -11 -49 -21 -120 -23 -157 -1 -38 -6 -68 -10 -68 -5 0
-7 -15 -7 -32 1 -22 3 -26 6 -13 3 11 12 29 19 40 8 11 14 27 14 36 0 45 89
92 104 54 3 -9 19 -15 41 -15 24 0 35 4 35 15 0 8 6 15 13 15 7 0 21 10 32 23
l20 22 3 -22 c2 -15 10 -23 22 -23 14 0 20 9 23 38 2 20 5 -6 8 -58 5 -137 4
-181 -7 -188 -5 -4 -10 -38 -12 -77 -2 -38 -12 -96 -23 -128 -10 -31 -19 -70
-19 -87 0 -36 -20 -131 -30 -145 -4 -5 -13 -45 -19 -89 -7 -48 -19 -89 -32
-107 -11 -16 -18 -37 -15 -46 10 -32 -8 -118 -24 -118 -12 0 -14 -11 -12 -48
3 -38 0 -51 -15 -62 -15 -11 -18 -25 -16 -79 2 -53 0 -66 -12 -66 -11 0 -15
11 -15 39 0 22 -4 43 -10 46 -6 4 -10 -5 -10 -20 0 -15 -7 -34 -16 -43 -15
-14 -15 -17 1 -28 15 -11 13 -14 -14 -30 -17 -10 -31 -23 -31 -29 0 -5 -5 -2
-11 8 -6 11 -22 17 -44 17 -28 0 -35 -4 -35 -20 0 -11 5 -20 10 -20 6 0 9 -17
9 -37 -1 -21 -3 -30 -6 -20 -2 9 -13 17 -24 17 -11 0 -23 8 -26 18 -4 9 -12
21 -20 25 -7 4 -13 14 -13 22 0 7 -5 15 -11 17 -7 2 -8 44 -3 130 4 70 11 125
15 122 5 -3 6 2 3 10 -3 9 -3 24 1 34 4 9 9 33 11 52 2 19 8 55 13 80 5 25 9
54 8 65 0 11 3 30 7 43 5 16 3 22 -8 22 -10 0 -16 -9 -16 -24 0 -49 -23 -126
-38 -126 -12 0 -13 -12 -8 -69 5 -45 3 -71 -3 -76 -6 -3 -11 -21 -11 -40 0
-19 -4 -37 -10 -40 -6 -4 -10 10 -10 34 0 22 -4 43 -10 46 -6 4 -10 -35 -10
-109 l0 -116 -35 0 -35 0 -2 -77 c-1 -47 -3 -61 -5 -35 l-4 42 -65 0 -64 0 0
30 c0 17 5 30 10 30 6 0 10 33 10 80 0 64 -3 80 -15 80 -8 0 -15 -4 -15 -10 0
-5 -16 -10 -35 -10 -31 0 -35 3 -35 25 0 23 -4 25 -40 25 l-40 0 0 -50 0 -50
-35 0 c-23 0 -35 -5 -35 -14 0 -11 -5 -12 -25 -3 -19 9 -25 20 -25 44 0 18 -6
36 -13 40 -34 22 -51 98 -25 114 6 4 8 15 4 25 -7 18 -8 18 -20 1 -16 -21 -26
-22 -26 -2 0 8 -4 15 -9 15 -5 0 -12 15 -15 33 -4 17 -15 50 -26 72 l-19 40 6
-50 c3 -27 10 -58 15 -68 6 -12 6 -23 0 -30 -6 -7 -16 -58 -23 -114 -10 -84
-15 -102 -30 -106 -28 -8 -27 -73 2 -82 19 -6 20 -11 12 -73 -4 -37 -8 -94 -7
-127 0 -42 -4 -63 -14 -71 -10 -7 -13 -19 -9 -36 5 -18 2 -28 -7 -31 -22 -9
-42 14 -55 63 -7 25 -17 50 -22 56 -13 16 -59 135 -59 152 0 8 -18 52 -40 98
-22 47 -40 97 -40 112 0 25 31 72 88 132 12 13 22 27 22 31 0 15 131 164 150
171 11 4 29 23 41 42 11 19 26 37 34 40 8 3 23 22 34 43 11 21 38 58 60 82 23
24 41 47 41 51 0 5 9 19 19 32 11 12 41 48 66 78 65 78 65 78 65 89 0 5 3 11
8 13 12 5 62 76 62 87 0 6 4 11 9 11 19 0 121 117 121 138 0 4 11 19 25 32 14
13 25 29 25 35 0 6 12 22 26 36 15 13 34 36 43 50 21 34 97 125 142 170 20 20
40 46 44 58 3 12 16 32 28 45 51 55 67 77 67 89 0 16 9 27 23 27 5 0 7 -14 3
-32z m761 0 c-3 -8 -6 -5 -6 6 -1 11 2 17 5 13 3 -3 4 -12 1 -19z m-16 -51
c-13 -13 -26 -3 -16 12 3 6 11 8 17 5 6 -4 6 -10 -1 -17z m-5078 -20 c24 -25
97 -131 97 -142 0 -13 63 -98 106 -143 43 -45 44 -45 53 -21 9 22 10 21 10
-13 1 -21 6 -38 11 -38 6 0 10 9 10 20 0 14 5 18 16 13 11 -4 13 -12 9 -27
-12 -34 -8 -64 9 -81 8 -9 21 -35 27 -58 7 -23 18 -49 24 -57 16 -19 -1 -170
-19 -170 -6 0 -16 -12 -23 -26 -12 -26 -8 -54 8 -54 5 0 18 -18 29 -40 26 -51
19 -139 -11 -147 -11 -3 -19 -6 -19 -7 0 0 -11 -32 -24 -70 -22 -61 -23 -72
-10 -91 16 -24 47 -52 86 -78 46 -29 60 -62 69 -153 4 -47 13 -107 20 -134 16
-63 7 -80 -72 -140 -90 -67 -94 -74 -94 -142 -1 -47 -5 -63 -20 -74 -15 -11
-21 -12 -30 -2 -21 24 -42 113 -38 166 2 34 -1 52 -8 52 -7 0 -9 10 -7 25 3
14 -1 30 -8 36 -8 6 -14 16 -14 22 0 6 -7 18 -15 26 -24 27 -41 156 -26 198
14 39 7 99 -15 124 -35 39 -57 132 -59 246 -2 104 -4 116 -28 151 -15 21 -27
52 -27 69 0 17 -7 36 -15 43 -8 7 -15 26 -15 42 0 20 -8 37 -25 50 -14 11 -25
24 -25 30 0 6 -11 20 -24 32 -13 11 -29 38 -36 59 -7 21 -18 41 -26 44 -8 3
-14 13 -14 23 0 10 -7 20 -15 24 -8 3 -15 15 -15 26 0 11 -7 23 -15 26 -8 4
-15 10 -15 15 0 15 25 10 46 -8 10 -10 35 -30 54 -44 19 -15 50 -41 69 -58 26
-23 44 -31 73 -31 21 0 38 -4 38 -10 0 -5 17 -10 39 -10 30 0 46 -7 75 -35 21
-19 47 -35 58 -35 21 0 21 0 -1 24 -16 17 -21 31 -16 46 5 15 4 20 -4 16 -7
-5 -9 -1 -5 8 4 9 -1 18 -10 22 -9 3 -16 12 -16 20 0 7 -8 19 -17 26 -20 15
-46 62 -68 127 -8 25 -26 58 -39 75 -13 17 -27 47 -31 66 -4 19 -13 46 -20 60
-14 26 -35 87 -35 101 0 14 7 11 33 -14z m704 -39 c-2 -13 -4 -5 -4 17 -1 22
1 32 4 23 2 -10 2 -28 0 -40z m5216 12 c-4 -30 -1 -45 12 -60 14 -16 17 -30
12 -70 -5 -40 -3 -50 8 -50 11 0 15 13 15 53 0 72 20 95 75 86 l40 -6 -37 -2
c-32 -1 -38 -5 -38 -22 0 -20 4 -21 45 -17 46 6 54 1 33 -20 -15 -15 -65 -16
-74 0 -10 15 -32 -45 -33 -89 -1 -23 4 -33 14 -33 8 0 15 -4 15 -10 0 -20 -41
-9 -65 16 -22 23 -25 37 -25 95 0 37 -5 79 -11 93 -12 26 -5 76 10 76 5 0 7
-18 4 -40z m-843 -5 c0 -16 -6 -25 -15 -25 -15 0 -21 31 -8 43 13 14 23 6 23
-18z m588 -43 c4 -69 22 -67 22 3 0 52 7 65 24 48 4 -5 13 -8 19 -8 16 0 36
-45 29 -64 -5 -12 -8 -10 -16 12 -13 34 -30 30 -34 -9 -2 -24 3 -33 23 -44 28
-15 33 -30 10 -30 -8 0 -15 5 -15 10 0 6 -4 10 -10 10 -5 0 -10 -7 -10 -15 0
-8 6 -15 13 -15 8 0 8 -3 -2 -9 -10 -7 -12 -20 -7 -50 5 -32 3 -41 -8 -41 -8
0 -18 -9 -21 -20 -3 -11 -11 -20 -17 -20 -5 0 -12 9 -15 20 -4 16 -14 20 -44
20 -38 0 -39 1 -39 35 0 19 4 35 9 35 5 0 12 33 16 73 8 78 27 120 53 115 13
-2 18 -16 20 -56z m-91 -34 c-2 -13 -4 -5 -4 17 -1 22 1 32 4 23 2 -10 2 -28
0 -40z m543 38 c0 -16 -18 -31 -27 -22 -8 8 5 36 17 36 5 0 10 -6 10 -14z
m-5390 -46 c0 -5 -4 -10 -10 -10 -5 0 -10 5 -10 10 0 6 5 10 10 10 6 0 10 -4
10 -10z m5177 -72 c-2 -13 -4 -5 -4 17 -1 22 1 32 4 23 2 -10 2 -28 0 -40z
m173 12 c0 -5 -16 -10 -35 -10 -19 0 -35 5 -35 10 0 6 16 10 35 10 19 0 35 -4
35 -10z m-2910 -15 c0 -8 -7 -15 -15 -15 -8 0 -15 7 -15 15 0 8 7 15 15 15 8
0 15 -7 15 -15z m78 -2 c-10 -2 -28 -2 -40 0 -13 2 -5 4 17 4 22 1 32 -1 23
-4z m-158 -24 c0 -5 -4 -9 -10 -9 -5 0 -10 7 -10 16 0 8 5 12 10 9 6 -3 10
-10 10 -16z m2970 7 c0 -35 -45 -50 -47 -16 -1 15 4 20 23 20 13 0 24 -2 24
-4z m-2992 -76 c18 -31 52 -41 52 -15 0 11 11 15 40 15 38 0 40 -2 40 -30 0
-16 -4 -30 -10 -30 -5 0 -10 -6 -10 -13 0 -31 -26 -67 -47 -67 -13 0 -23 -6
-23 -14 0 -7 -9 -16 -20 -19 -11 -3 -20 -13 -20 -22 0 -9 9 -19 20 -22 11 -3
20 -13 20 -23 0 -10 7 -20 15 -24 8 -3 15 -10 15 -16 0 -5 -7 -10 -15 -10 -10
0 -15 -11 -15 -35 0 -19 -5 -35 -10 -35 -6 0 -15 -11 -20 -25 -5 -14 -16 -25
-25 -25 -8 0 -15 -7 -15 -15 0 -8 5 -15 10 -15 6 0 10 -7 10 -15 0 -8 -4 -15
-10 -15 -5 0 -10 7 -10 15 0 8 -4 15 -10 15 -5 0 -10 -7 -10 -16 0 -9 -9 -18
-20 -21 -11 -3 -20 -9 -20 -14 0 -11 -49 -59 -60 -59 -6 0 -10 -9 -10 -20 0
-15 7 -20 25 -20 18 0 25 -5 25 -20 0 -16 -7 -20 -34 -20 -19 0 -37 6 -40 13
-3 6 -3 1 0 -13 4 -14 11 -28 17 -31 5 -4 7 -15 2 -25 -6 -16 -8 -16 -13 -4
-6 19 -23 30 -42 29 -10 0 -11 -2 -2 -6 17 -7 15 -60 -3 -67 -10 -3 -15 -19
-15 -45 0 -36 3 -40 28 -44 25 -4 25 -4 -5 -6 -18 0 -33 4 -33 9 0 6 -6 10
-14 10 -7 0 -16 9 -19 20 -3 12 -14 20 -26 20 -11 0 -26 -9 -33 -20 -13 -21
-48 -28 -48 -10 0 6 -4 10 -10 10 -5 0 -10 -9 -10 -21 0 -19 5 -21 44 -18 32
3 42 1 39 -8 -3 -7 -22 -13 -43 -13 -28 0 -40 -5 -43 -17 -3 -10 -5 2 -6 26
-1 34 -8 52 -28 73 -15 15 -21 28 -15 28 7 0 12 15 12 34 0 26 5 36 20 41 11
3 25 3 31 0 7 -5 8 5 3 30 -4 22 -2 40 3 44 17 11 22 99 7 112 -19 16 -18 39
2 39 23 0 11 24 -14 28 -12 2 -22 6 -22 9 0 9 72 93 80 93 5 0 11 -8 14 -17 3
-10 4 -6 2 10 -3 22 1 27 17 27 16 0 18 3 9 12 -20 20 -14 28 33 49 41 18 45
23 45 55 0 21 9 49 22 67 28 41 39 48 61 41 12 -4 17 1 18 18 l2 23 4 -23 c6
-31 37 -25 41 8 4 36 23 70 39 70 8 0 22 -13 31 -30z m-2031 -47 c-3 -10 -5
-2 -5 17 0 19 2 27 5 18 2 -10 2 -26 0 -35z m4973 -11 c0 -4 -16 -6 -35 -4
-19 2 -35 6 -35 8 0 2 16 4 35 4 19 0 35 -4 35 -8z m-433 -64 c-2 -13 -4 -5
-4 17 -1 22 1 32 4 23 2 -10 2 -28 0 -40z m-5228 -6 c12 -22 11 -23 -8 -12
-22 11 -26 22 -14 33 7 8 7 9 22 -21z m6966 -39 c4 -20 13 -50 21 -66 15 -27
23 -38 64 -84 11 -13 20 -32 20 -43 0 -11 -9 -25 -20 -32 -11 -7 -20 -21 -20
-30 0 -12 -8 -18 -22 -18 -17 0 -19 -3 -10 -12 9 -9 5 -17 -14 -35 -14 -12
-33 -23 -42 -23 -11 0 -13 3 -5 8 17 11 5 142 -13 142 -8 0 -14 9 -14 20 0 11
5 20 10 20 6 0 10 7 10 15 0 11 -10 13 -50 8 -58 -7 -73 10 -46 52 9 13 16 33
16 43 0 10 10 28 23 40 12 11 28 28 35 36 20 24 48 3 57 -41z m-2718 -185 c-3
-8 -6 -5 -6 6 -1 11 2 17 5 13 3 -3 4 -12 1 -19z m3113 -67 c6 -16 11 -55 11
-87 0 -32 6 -74 13 -94 16 -47 104 -178 128 -191 10 -5 18 -19 18 -29 0 -13 7
-20 19 -20 12 0 23 -11 29 -29 6 -15 20 -38 33 -49 18 -18 20 -24 9 -37 -7 -9
-8 -15 -2 -15 6 0 12 6 15 13 3 7 9 1 15 -14 6 -15 14 -28 19 -30 15 -7 53
-99 46 -114 -3 -10 3 -22 16 -31 20 -15 65 -88 66 -109 1 -5 11 -32 23 -59 12
-26 27 -67 32 -90 6 -22 15 -50 20 -61 5 -11 14 -38 20 -60 6 -22 16 -50 22
-63 10 -18 8 -25 -8 -37 -18 -14 -18 -16 -1 -26 9 -5 17 -20 17 -32 0 -16 3
-18 9 -8 12 18 17 4 20 -48 2 -41 1 -43 -21 -36 -13 3 -53 12 -91 19 -78 15
-107 40 -107 93 0 18 5 33 10 33 18 0 10 26 -15 48 -14 12 -32 22 -40 22 -9 0
-15 9 -15 21 0 22 -36 58 -57 59 -7 0 -13 6 -13 14 0 7 -7 19 -15 26 -9 8 -13
21 -9 32 4 13 -4 28 -29 51 -42 40 -58 111 -27 127 32 17 68 12 75 -10 3 -11
13 -20 21 -20 11 0 14 10 12 38 -2 30 -7 38 -25 40 -18 3 -23 10 -24 38 -1 19
-2 39 -3 46 -2 19 22 20 27 1 3 -10 5 3 6 28 1 45 0 46 -25 41 -18 -3 -30 0
-36 12 -12 21 -25 20 -31 -1 -3 -10 -5 -1 -6 20 -1 26 -6 37 -16 37 -11 0 -15
11 -15 36 0 35 -1 36 -35 32 -31 -3 -35 -1 -35 18 0 14 -8 25 -20 29 -11 3
-20 13 -20 20 0 11 -6 12 -32 3 -24 -9 -33 -8 -36 0 -7 22 -37 12 -64 -22 -17
-21 -25 -41 -22 -50 4 -12 2 -15 -9 -11 -10 4 -17 -2 -21 -19 -4 -17 -11 -23
-21 -20 -18 7 -20 -12 -2 -20 9 -5 9 -7 -1 -12 -7 -3 -18 -13 -25 -21 -7 -9
-25 -27 -41 -42 -75 -68 -135 -133 -141 -151 -3 -11 -10 -20 -14 -20 -4 0 -59
-50 -122 -110 -117 -114 -149 -139 -149 -120 0 6 7 13 15 16 8 4 12 10 9 15
-3 5 6 23 19 39 14 16 28 44 32 61 7 31 12 40 43 74 7 8 18 29 24 47 6 18 21
44 33 58 12 14 30 45 39 70 10 24 29 56 43 70 14 13 32 41 40 61 8 20 25 42
39 49 13 7 24 21 24 31 0 10 6 22 13 26 7 4 20 20 30 35 9 15 36 49 60 76 24
26 49 64 56 83 8 19 28 49 45 66 56 59 66 72 60 88 -4 8 -1 15 5 15 7 0 11 6
9 13 -3 15 20 57 31 57 5 0 14 -13 21 -29z m-6785 -71 c18 -19 17 -20 -3 -20
-15 0 -22 6 -22 20 0 11 2 20 3 20 2 0 12 -9 22 -20z m1735 -25 c0 -10 -10
-15 -30 -15 -20 0 -30 5 -30 15 0 10 10 15 30 15 20 0 30 -5 30 -15z m-72 -42
c5 -17 -26 -29 -40 -15 -6 6 -7 15 -3 22 9 14 37 9 43 -7z m-1488 -218 c0 -34
-1 -35 -40 -35 -39 0 -40 1 -40 35 0 34 1 35 40 35 39 0 40 -1 40 -35z m1827
-17 c-2 -13 -4 -5 -4 17 -1 22 1 32 4 23 2 -10 2 -28 0 -40z m2480 0 c-2 -13
-4 -5 -4 17 -1 22 1 32 4 23 2 -10 2 -28 0 -40z m-4367 -168 c0 -40 -4 -70
-10 -70 -6 0 -10 30 -10 70 0 40 4 70 10 70 6 0 10 -30 10 -70z m445 10 c3 -5
-3 -10 -14 -10 -12 0 -21 5 -21 10 0 6 6 10 14 10 8 0 18 -4 21 -10z m-488
-137 c-3 -10 -5 -2 -5 17 0 19 2 27 5 18 2 -10 2 -26 0 -35z m3520 0 c-3 -10
-5 -2 -5 17 0 19 2 27 5 18 2 -10 2 -26 0 -35z m-1433 -165 c3 -13 6 -38 6
-55 0 -18 5 -33 10 -33 6 0 11 -26 11 -57 1 -32 4 -47 6 -33 3 14 9 29 14 34
15 17 10 -47 -6 -68 -8 -11 -15 -35 -15 -53 0 -32 -1 -33 -40 -33 l-40 0 -2
-42 -1 -43 -4 43 c-4 39 -6 42 -34 42 -27 0 -29 -2 -29 -40 0 -40 0 -40 -39
-40 -39 0 -40 -1 -44 -37 -2 -21 -4 -1 -5 45 -1 45 -8 91 -14 102 -10 16 -10
25 4 47 9 16 27 30 40 33 15 4 23 13 23 27 0 12 14 37 31 56 16 19 38 47 48
61 45 69 69 82 80 44z m460 -50 c8 -32 7 -58 -2 -58 -4 0 -13 18 -19 40 -8 31
-7 40 2 40 7 0 15 -10 19 -22z m53 -160 c-2 -13 -4 -5 -4 17 -1 22 1 32 4 23
2 -10 2 -28 0 -40z m360 0 c-2 -13 -4 -5 -4 17 -1 22 1 32 4 23 2 -10 2 -28 0
-40z m118 22 c3 -5 1 -10 -4 -10 -6 0 -11 5 -11 10 0 6 2 10 4 10 3 0 8 -4 11
-10z m3775 0 c0 -5 -2 -10 -4 -10 -3 0 -8 5 -11 10 -3 6 -1 10 4 10 6 0 11 -4
11 -10z m-3712 -57 c-10 -2 -28 -2 -40 0 -13 2 -5 4 17 4 22 1 32 -1 23 -4z
m-518 -50 c0 -7 -4 -13 -10 -13 -5 0 -10 12 -10 28 0 21 2 24 10 12 5 -8 10
-21 10 -27z m-810 -43 c0 -5 -4 -10 -10 -10 -5 0 -10 5 -10 10 0 6 5 10 10 10
6 0 10 -4 10 -10z m420 -80 c0 -5 -2 -10 -4 -10 -3 0 -8 5 -11 10 -3 6 -1 10
4 10 6 0 11 -4 11 -10z m-212 -47 c-10 -2 -26 -2 -35 0 -10 3 -2 5 17 5 19 0
27 -2 18 -5z m442 -87 c0 -11 -19 -15 -25 -6 -3 5 1 10 9 10 9 0 16 -2 16 -4z
m4930 -36 c0 -5 7 -10 15 -10 7 0 18 -7 23 -15 4 -9 24 -17 44 -18 33 -2 68
-25 68 -45 0 -6 7 -13 16 -16 13 -5 15 -15 10 -46 -6 -37 7 -64 17 -38 3 7 6
3 6 -10 1 -13 -3 -21 -8 -18 -8 5 -21 -14 -26 -39 -1 -5 -3 -13 -3 -17 -1 -5
-18 7 -38 26 -20 19 -49 37 -66 40 -24 5 -28 9 -23 26 5 16 2 20 -14 20 -12 0
-21 -6 -21 -13 0 -17 -79 57 -103 95 -17 28 -22 69 -10 81 10 11 113 8 113 -3z
m-4907 -37 c8 -26 15 -32 41 -35 20 -2 32 -9 34 -21 4 -20 -41 -67 -64 -67 -7
0 -14 -7 -14 -15 0 -24 -17 -17 -24 9 -3 14 -18 31 -33 38 -25 12 -72 79 -73
105 0 13 27 19 85 19 35 -1 40 -4 48 -33z m172 -13 c3 -5 1 -10 -4 -10 -6 0
-11 5 -11 10 0 6 2 10 4 10 3 0 8 -4 11 -10z m-27 -27 c2 -7 -3 -13 -12 -13
-10 0 -16 -12 -19 -37 -3 -31 -4 -28 -5 15 -2 45 1 53 15 50 9 -2 18 -9 21
-15z"/>
<path d="M2805 8629 c-20 -32 -2 -98 27 -99 14 0 38 32 38 51 0 46 -46 80 -65
48z"/>
<path d="M1447 8673 c-15 -14 -7 -120 9 -134 36 -30 68 45 49 118 -5 22 -42
33 -58 16z"/>
<path d="M1912 8631 c-8 -22 -7 -31 2 -34 23 -9 38 8 30 36 -8 35 -20 34 -32
-2z"/>
<path d="M3511 8661 c-21 -38 -10 -115 16 -125 31 -12 44 14 41 78 -3 54 -6
61 -25 64 -14 2 -26 -4 -32 -17z"/>
<path d="M4149 8656 c-15 -33 -3 -112 18 -120 36 -14 65 62 44 117 -13 34 -47
36 -62 3z"/>
<path d="M4332 8658 c3 -25 36 -37 48 -17 13 20 0 39 -27 39 -20 0 -24 -4 -21
-22z"/>
<path d="M4332 8588 c-26 -26 -2 -61 36 -51 27 7 29 39 3 53 -24 13 -24 13
-39 -2z"/>
<path d="M5664 8666 c-10 -26 1 -51 22 -54 27 -4 47 21 39 48 -7 24 -53 28
-61 6z"/>
<path d="M402 8631 c-20 -12 -11 -81 11 -95 15 -9 21 -7 33 8 36 49 2 116 -44
87z"/>
<path d="M664 8565 c-6 -16 2 -35 16 -35 11 0 40 29 40 41 0 15 -50 10 -56 -6z"/>
<path d="M2634 8565 c-6 -16 2 -35 16 -35 11 0 40 29 40 41 0 15 -50 10 -56
-6z"/>
<path d="M310 8229 c0 -38 1 -40 28 -37 47 5 39 78 -9 78 -16 0 -19 -8 -19
-41z"/>
<path d="M1562 8210 c-28 -38 -28 -50 3 -50 23 0 25 4 25 40 0 22 -1 40 -3 40
-2 0 -13 -13 -25 -30z"/>
<path d="M1906 8251 c-11 -18 6 -42 28 -39 29 4 29 42 -1 46 -11 2 -24 -1 -27
-7z"/>
<path d="M1901 8166 c-13 -15 -6 -42 12 -49 7 -2 22 -1 34 4 16 6 21 13 16 26
-12 34 -42 43 -62 19z"/>
<path d="M2091 8206 c-27 -43 -26 -46 4 -46 23 0 25 4 25 40 0 22 -2 40 -4 40
-2 0 -14 -15 -25 -34z"/>
<path d="M2262 8257 c-9 -10 -8 -18 2 -32 18 -25 48 -13 44 17 -4 27 -30 35
-46 15z"/>
<path d="M2263 8173 c-7 -2 -13 -16 -13 -29 0 -20 5 -24 30 -24 34 0 49 22 30
45 -13 15 -25 17 -47 8z"/>
<path d="M2432 8238 c4 -31 53 -34 53 -3 0 15 -8 21 -28 23 -25 3 -28 0 -25
-20z"/>
<path d="M2429 8159 c-14 -27 0 -42 37 -37 33 4 41 20 19 42 -22 22 -42 20
-56 -5z"/>
<path d="M3034 8176 c-12 -31 0 -51 31 -51 27 0 30 3 30 30 0 25 -4 30 -28 33
-17 2 -29 -2 -33 -12z"/>
<path d="M3224 8255 c-18 -13 -18 -15 -2 -31 18 -18 48 -13 48 9 0 26 -25 38
-46 22z"/>
<path d="M3209 8159 c-14 -27 0 -42 37 -37 33 4 41 20 19 42 -22 22 -42 20
-56 -5z"/>
<path d="M3475 8240 c-13 -40 38 -68 64 -36 9 11 10 20 1 35 -14 28 -56 28
-65 1z"/>
<path d="M3845 8256 c-23 -17 -16 -60 11 -64 26 -4 48 21 39 47 -8 25 -29 33
-50 17z"/>
<path d="M4007 8248 c-8 -22 11 -58 31 -58 30 0 46 24 32 49 -12 23 -55 29
-63 9z"/>
<path d="M4190 8240 c0 -27 27 -37 47 -17 20 19 9 37 -23 37 -17 0 -24 -5 -24
-20z"/>
<path d="M4190 8165 c-19 -23 -4 -45 30 -45 22 0 30 5 30 18 0 37 -38 54 -60
27z"/>
<path d="M4364 8176 c-12 -31 0 -51 31 -51 27 0 30 3 30 30 0 25 -4 30 -28 33
-17 2 -29 -2 -33 -12z"/>
<path d="M784 7776 c-3 -13 -4 -35 -2 -47 2 -19 9 -24 33 -24 24 0 31 5 33 24
7 43 -6 71 -33 71 -18 0 -26 -7 -31 -24z"/>
<path d="M1584 7836 c-9 -24 4 -48 23 -44 12 2 18 12 18 28 0 29 -32 41 -41
16z"/>
<path d="M1575 7740 c-9 -27 1 -40 31 -40 29 0 42 24 24 45 -18 21 -48 19 -55
-5z"/>
<path d="M277 7793 c-15 -14 -7 -84 9 -90 38 -14 71 49 43 83 -12 15 -41 19
-52 7z"/>
<path d="M457 7794 c-15 -15 -6 -24 24 -24 20 0 29 4 27 13 -5 14 -40 21 -51
11z"/>
<path d="M627 7793 c-14 -13 -6 -23 18 -23 16 0 25 6 25 15 0 15 -31 21 -43 8z"/>
<path d="M7700 6774 c0 -9 5 -14 12 -12 18 6 21 28 4 28 -9 0 -16 -7 -16 -16z"/>
<path d="M6950 5766 c0 -9 7 -16 16 -16 9 0 14 5 12 12 -6 18 -28 21 -28 4z"/>
<path d="M6930 5690 c-12 -8 -10 -10 8 -10 13 0 20 4 17 10 -7 12 -6 12 -25 0z"/>
<path d="M7166 5321 c-4 -7 -5 -15 -2 -18 9 -9 19 4 14 18 -4 11 -6 11 -12 0z"/>
<path d="M7256 5321 c-4 -7 -5 -15 -2 -18 9 -9 19 4 14 18 -4 11 -6 11 -12 0z"/>
<path d="M7256 5253 c-11 -11 -6 -23 9 -23 8 0 15 4 15 9 0 13 -16 22 -24 14z"/>
<path d="M7902 4248 c6 -18 28 -21 28 -4 0 9 -7 16 -16 16 -9 0 -14 -5 -12
-12z"/>
<path d="M5720 4125 c0 -10 7 -15 18 -13 21 4 19 22 -2 26 -10 2 -16 -3 -16
-13z"/>
<path d="M5620 4107 c-51 -27 -80 -50 -80 -63 0 -8 -4 -14 -10 -14 -5 0 -10
-8 -10 -17 -1 -22 -93 -88 -137 -97 -30 -7 -31 -8 -21 -39 6 -18 14 -54 19
-82 19 -117 51 -244 114 -460 37 -126 71 -246 75 -265 7 -33 19 -69 39 -115
19 -44 40 -102 52 -140 6 -22 22 -65 35 -95 12 -30 35 -93 49 -138 15 -46 28
-82 30 -80 7 7 -14 122 -30 168 -13 37 -13 45 0 71 9 17 24 29 35 29 16 0 20
7 20 34 0 22 6 36 16 40 23 9 24 8 24 -14 0 -11 5 -20 10 -20 15 0 25 31 12
39 -6 4 1 18 18 38 l29 32 9 -42 10 -42 1 41 c1 26 6 44 15 47 19 8 26 -1 26
-35 0 -16 7 -36 15 -44 13 -13 14 -11 9 18 -5 31 -4 31 20 -14 26 -47 46 -68
46 -49 0 11 -46 133 -61 163 -5 10 -9 28 -9 41 0 13 -4 27 -9 32 -4 6 -23 55
-41 110 -18 55 -36 105 -40 110 -4 6 -11 26 -15 45 -4 19 -11 41 -15 50 -4 8
-13 33 -19 55 -7 22 -16 49 -20 60 -42 103 -61 158 -61 175 0 10 -4 21 -9 24
-11 7 -64 167 -81 246 -7 30 -19 75 -26 99 -18 57 -18 70 3 93 20 22 1 25 -37
5z m10 -123 c0 -13 -4 -24 -10 -24 -5 0 -10 -15 -10 -34 0 -19 5 -38 10 -41 6
-3 9 -21 9 -38 -1 -18 -3 -24 -6 -14 -3 12 -14 17 -38 17 -25 0 -35 5 -40 20
-4 14 -15 20 -36 20 -37 0 -68 25 -43 34 9 3 31 6 50 6 29 0 34 3 34 24 0 13
-6 26 -12 29 -7 3 -2 4 11 4 14 -1 31 8 40 20 19 25 41 13 41 -23z m20 -80 c0
-8 -4 -14 -10 -14 -5 0 -10 9 -10 21 0 11 5 17 10 14 6 -3 10 -13 10 -21z
m187 -886 c-2 -13 -4 -5 -4 17 -1 22 1 32 4 23 2 -10 2 -28 0 -40z"/>
<path d="M5170 4094 c0 -17 22 -14 28 4 2 7 -3 12 -12 12 -9 0 -16 -7 -16 -16z"/>
<path d="M5752 4098 c6 -18 28 -21 28 -4 0 9 -7 16 -16 16 -9 0 -14 -5 -12
-12z"/>
<path d="M5917 4006 c-4 -10 -5 -21 -2 -24 9 -9 17 6 13 25 -3 17 -4 17 -11
-1z"/>
<path d="M5170 3980 c0 -5 5 -10 11 -10 5 0 7 5 4 10 -3 6 -8 10 -11 10 -2 0
-4 -4 -4 -10z"/>
<path d="M5958 3982 c-19 -4 -24 -17 -9 -26 5 -3 14 1 21 9 15 18 12 23 -12
17z"/>
<path d="M6298 3953 c7 -3 16 -2 19 1 4 3 -2 6 -13 5 -11 0 -14 -3 -6 -6z"/>
<path d="M7255 3889 c-11 -17 -2 -18 19 -3 17 12 17 14 4 14 -9 0 -20 -5 -23
-11z"/>
<path d="M7205 3710 c-3 -5 1 -10 10 -10 9 0 13 5 10 10 -3 6 -8 10 -10 10 -2
0 -7 -4 -10 -10z"/>
<path d="M7150 3670 c-8 -5 -11 -12 -8 -16 4 -3 14 1 23 10 18 17 9 21 -15 6z"/>
<path d="M7095 3630 c-3 -5 1 -10 9 -10 9 0 16 5 16 10 0 6 -4 10 -9 10 -6 0
-13 -4 -16 -10z"/>
<path d="M6760 3479 c0 -5 5 -7 10 -4 6 3 10 8 10 11 0 2 -4 4 -10 4 -5 0 -10
-5 -10 -11z"/>
<path d="M4353 3285 c-3 -9 -3 -18 -1 -21 9 -9 38 8 38 22 0 19 -29 18 -37 -1z"/>
<path d="M4997 3143 c-4 -3 -7 -21 -7 -40 0 -23 5 -33 15 -33 11 0 15 -11 15
-43 0 -36 -5 -47 -30 -65 -33 -24 -39 -42 -15 -42 11 0 15 -11 15 -40 0 -29 4
-40 15 -40 12 0 15 -15 15 -75 0 -67 9 -91 24 -66 3 4 10 67 15 138 12 147 6
233 -15 233 -10 0 -14 13 -14 40 0 38 -14 52 -33 33z"/>
<path d="M4930 2840 c0 -5 5 -10 10 -10 6 0 10 5 10 10 0 6 -4 10 -10 10 -5 0
-10 -4 -10 -10z"/>
<path d="M3992 2660 c0 -19 2 -27 5 -17 2 9 2 25 0 35 -3 9 -5 1 -5 -18z"/>
<path d="M5104 2045 c-4 -8 -15 -15 -25 -15 -23 0 -25 -25 -3 -34 22 -8 24 -8
24 8 0 8 7 16 15 20 17 6 21 36 5 36 -6 0 -13 -7 -16 -15z"/>
<path d="M4500 2015 c0 -8 9 -15 20 -15 11 0 20 7 20 15 0 8 -9 15 -20 15 -11
0 -20 -7 -20 -15z"/>
<path d="M5303 1783 c-18 -7 -16 -23 2 -23 8 0 15 7 15 15 0 8 -1 15 -2 14 -2
0 -9 -3 -15 -6z"/>
<path d="M5205 1750 c-16 -11 -24 -20 -17 -20 6 0 12 -7 12 -15 0 -22 8 -19
47 20 33 33 34 35 12 35 -13 0 -37 -9 -54 -20z"/>
<path d="M5147 1683 c-12 -11 -8 -23 8 -23 8 0 15 7 15 15 0 16 -12 20 -23 8z"/>
<path d="M5090 1590 c0 -5 5 -10 10 -10 6 0 10 5 10 10 0 6 -4 10 -10 10 -5 0
-10 -4 -10 -10z"/>
<path d="M5083 1415 c-7 -7 -18 -15 -25 -18 -7 -2 -10 -7 -7 -11 9 -10 37 3
43 21 8 21 4 24 -11 8z"/>
<path d="M8150 2741 c0 -30 -4 -40 -20 -44 -18 -5 -20 -14 -20 -76 0 -39 -4
-71 -9 -71 -5 0 -12 -66 -16 -146 -6 -132 -9 -147 -26 -151 -16 -5 -19 -15
-19 -64 0 -46 3 -59 15 -59 8 0 15 -4 15 -10 0 -13 -26 -13 -50 0 -20 11 -39
-3 -20 -15 13 -8 13 -75 -1 -75 -6 0 -9 -16 -7 -37 3 -36 5 -38 41 -41 35 -3
37 -5 37 -38 0 -27 4 -34 20 -34 18 0 20 7 20 70 0 55 -4 72 -16 77 -13 5 -10
11 12 34 22 23 25 32 16 41 -14 14 -16 64 -3 72 5 4 13 40 16 82 6 55 13 82
26 95 24 24 27 114 4 126 -13 7 -10 13 15 31 32 24 39 42 15 42 -12 0 -15 19
-15 115 0 96 -3 115 -15 115 -11 0 -15 -11 -15 -39z"/>
<path d="M8407 2554 c-11 -11 -8 -44 3 -44 15 0 24 30 13 41 -5 5 -12 6 -16 3z"/>
<path d="M8635 2540 c3 -5 13 -10 21 -10 8 0 14 5 14 10 0 6 -9 10 -21 10 -11
0 -17 -4 -14 -10z"/>
<path d="M8391 2484 c0 -11 3 -14 6 -6 3 7 2 16 -1 19 -3 4 -6 -2 -5 -13z"/>
<path d="M8534 2445 c-3 -14 -14 -30 -23 -35 -15 -9 -14 -9 2 -10 9 0 17 -7
17 -15 0 -8 4 -15 8 -15 5 0 9 23 9 50 1 55 -3 63 -13 25z"/>
<path d="M8693 2404 c-7 -7 -10 -19 -7 -27 3 -8 1 -18 -5 -22 -12 -7 -15 -45
-3 -45 23 1 33 20 30 62 -2 37 -5 43 -15 32z"/>
<path d="M8582 2370 c0 -19 2 -27 5 -17 2 9 2 25 0 35 -3 9 -5 1 -5 -18z"/>
<path d="M8521 2344 c0 -11 3 -14 6 -6 3 7 2 16 -1 19 -3 4 -6 -2 -5 -13z"/>
<path d="M8467 2283 c-4 -3 -7 -28 -7 -55 0 -41 3 -48 20 -48 22 0 25 21 14
79 -6 30 -14 38 -27 24z"/>
<path d="M8610 1840 c0 -33 3 -40 20 -40 17 0 20 7 20 40 0 33 -3 40 -20 40
-17 0 -20 -7 -20 -40z"/>
<path d="M8070 1390 c0 -33 3 -40 20 -40 17 0 20 7 20 40 0 33 -3 40 -20 40
-17 0 -20 -7 -20 -40z"/>
<path d="M7420 1729 c0 -11 5 -17 10 -14 6 3 10 13 10 21 0 8 -4 14 -10 14 -5
0 -10 -9 -10 -21z"/>
<path d="M7400 1596 c0 -22 3 -27 11 -19 8 8 8 16 0 30 -9 16 -10 14 -11 -11z"/>
<path d="M7380 1515 c0 -8 5 -15 10 -15 6 0 10 7 10 15 0 8 -4 15 -10 15 -5 0
-10 -7 -10 -15z"/>
<path d="M7445 931 c-3 -5 -1 -12 5 -16 5 -3 10 1 10 9 0 18 -6 21 -15 7z"/>
<path d="M7400 855 c0 -8 9 -15 20 -15 24 0 27 15 4 24 -22 9 -24 8 -24 -9z"/>
<path d="M3265 1950 c3 -5 10 -10 16 -10 5 0 9 5 9 10 0 6 -7 10 -16 10 -8 0
-12 -4 -9 -10z"/>
<path d="M3550 1810 c0 -5 9 -10 21 -10 11 0 17 5 14 10 -3 6 -13 10 -21 10
-8 0 -14 -4 -14 -10z"/>
<path d="M3460 1770 c0 -5 5 -10 10 -10 6 0 10 5 10 10 0 6 -4 10 -10 10 -5 0
-10 -4 -10 -10z"/>
<path d="M3509 1749 l-24 -19 23 0 c13 0 22 -6 22 -15 0 -8 9 -15 21 -15 11 0
17 5 14 10 -3 6 -12 21 -19 34 -12 24 -12 24 -37 5z"/>
<path d="M8876 2404 c-10 -25 -7 -84 4 -84 6 0 10 23 10 50 0 52 -4 61 -14 34z"/>
<path d="M6287 2119 c-4 -15 -11 -20 -21 -16 -11 5 -16 0 -16 -13 0 -10 9 -22
20 -25 11 -3 20 -11 20 -16 0 -5 15 -9 33 -9 36 0 67 25 67 54 0 14 -6 16 -31
11 -25 -6 -31 -4 -36 14 -7 27 -29 27 -36 0z"/>
<path d="M6210 2045 c0 -16 6 -25 15 -25 21 0 31 30 14 41 -23 14 -29 11 -29
-16z"/>
<path d="M6180 2015 c0 -8 5 -15 10 -15 6 0 10 7 10 15 0 8 -4 15 -10 15 -5 0
-10 -7 -10 -15z"/>
<path d="M6290 2016 c0 -8 -6 -16 -12 -19 -7 -2 -10 -8 -6 -11 3 -4 16 2 27
13 25 25 26 31 6 31 -8 0 -15 -6 -15 -14z"/>
<path d="M6200 1975 c0 -8 4 -15 10 -15 5 0 7 7 4 15 -4 8 -8 15 -10 15 -2 0
-4 -7 -4 -15z"/>
<path d="M6160 1963 c0 -15 18 -35 23 -27 3 5 -1 15 -9 22 -8 7 -14 9 -14 5z"/>
<path d="M6076 1865 c-3 -9 0 -15 9 -15 8 0 15 7 15 15 0 8 -4 15 -9 15 -5 0
-11 -7 -15 -15z"/>
<path d="M6217 1825 c-3 -7 -3 -15 0 -18 7 -7 33 3 33 13 0 14 -28 19 -33 5z"/>
<path d="M6132 1731 c-10 -6 -6 -15 15 -39 28 -33 43 -40 43 -21 0 6 7 17 15
26 17 17 16 34 -3 41 -7 2 -12 -7 -12 -22 0 -17 -6 -26 -15 -26 -11 0 -14 7
-9 25 6 26 -8 33 -34 16z"/>
<path d="M5970 1695 c-13 -16 -7 -45 10 -45 5 0 10 14 10 30 0 34 -3 36 -20
15z"/>
<path d="M6120 1595 c0 -8 5 -15 10 -15 6 0 10 7 10 15 0 8 -4 15 -10 15 -5 0
-10 -7 -10 -15z"/>
<path d="M5969 1579 c-10 -6 -7 -9 14 -9 29 0 35 5 14 13 -8 3 -20 1 -28 -4z"/>
<path d="M6050 1420 c0 -5 5 -10 10 -10 6 0 10 5 10 10 0 6 -4 10 -10 10 -5 0
-10 -4 -10 -10z"/>
<path d="M10987 1383 c-12 -11 -8 -23 8 -23 8 0 15 -6 15 -14 0 -8 7 -17 16
-20 23 -9 24 -8 24 14 0 11 -6 20 -14 20 -8 0 -16 7 -20 15 -6 16 -18 19 -29
8z"/>
<path d="M11132 1288 c-15 -15 -16 -38 -2 -38 12 0 23 25 18 40 -2 7 -7 7 -16
-2z"/>
<path d="M11338 903 c7 -3 16 -2 19 1 4 3 -2 6 -13 5 -11 0 -14 -3 -6 -6z"/>
<path d="M11275 853 c4 -21 14 -42 23 -47 9 -5 26 -20 37 -32 12 -13 25 -21
28 -17 10 10 8 83 -2 83 -5 0 -7 10 -3 23 5 20 4 21 -11 8 -15 -12 -20 -11
-35 3 -32 28 -45 20 -37 -21z"/>
<path d="M11414 706 c-3 -8 -1 -23 5 -33 9 -15 10 -13 11 15 0 34 -7 42 -16
18z"/>
<path d="M11450 610 c0 -5 5 -10 11 -10 5 0 7 5 4 10 -3 6 -8 10 -11 10 -2 0
-4 -4 -4 -10z"/>
<path d="M6180 715 c0 -9 6 -12 15 -9 8 4 15 10 15 15 0 5 -7 9 -15 9 -8 0
-15 -7 -15 -15z"/>
<path d="M6133 695 c-16 -17 -17 -35 -3 -35 6 0 10 5 10 10 0 6 7 10 16 10 9
0 14 5 12 12 -6 18 -21 19 -35 3z"/>
<path d="M11630 230 c0 -5 5 -10 10 -10 6 0 10 5 10 10 0 6 -4 10 -10 10 -5 0
-10 -4 -10 -10z"/>
</g>
</svg>
