<?xml version="1.0" standalone="no"?>
<!DOCTYPE svg PUBLIC "-//W3C//DTD SVG 20010904//EN"
 "http://www.w3.org/TR/2001/REC-SVG-20010904/DTD/svg10.dtd">
<svg version="1.0" xmlns="http://www.w3.org/2000/svg"
 width="915.000000pt" height="650.000000pt" viewBox="0 0 915.000000 650.000000"
 preserveAspectRatio="xMidYMid meet">

<g transform="translate(0.000000,650.000000) scale(0.100000,-0.100000)"
fill="#000000" stroke="none">
<path d="M5010 6493 c-391 -28 -700 -342 -700 -713 0 -266 155 -506 405 -630
116 -58 214 -80 355 -80 245 0 453 94 601 272 219 264 209 649 -23 904 -154
168 -400 264 -638 247z"/>
<path d="M3816 5209 c-151 -36 -297 -190 -336 -357 -15 -66 -9 -190 13 -252 9
-25 213 -433 453 -905 240 -473 445 -884 456 -915 23 -65 27 -192 9 -260 -7
-25 -222 -455 -477 -957 -521 -1021 -508 -992 -485 -1143 42 -280 316 -465
584 -395 89 23 156 62 223 129 50 51 73 85 122 186 256 533 269 557 329 617
165 165 412 187 612 55 88 -59 126 -118 286 -457 91 -193 165 -336 190 -368
84 -107 207 -166 362 -175 169 -9 280 28 389 130 114 107 169 261 146 411 -9
65 -54 159 -486 1027 -261 525 -480 976 -485 1002 -15 67 -14 154 4 223 10 38
175 365 459 910 244 468 451 875 460 905 33 110 14 263 -44 365 -42 74 -137
160 -217 198 -59 27 -82 32 -167 35 -120 5 -201 -14 -284 -67 -100 -65 -131
-111 -298 -444 -135 -268 -162 -315 -209 -362 -158 -157 -409 -184 -597 -64
-97 63 -131 113 -288 436 -158 323 -188 368 -291 434 -80 51 -154 69 -282 68
-62 -1 -129 -5 -151 -10z"/>
<path d="M955 4139 c-270 -37 -479 -133 -641 -294 -211 -208 -304 -462 -304
-829 0 -369 92 -628 295 -831 148 -148 331 -237 575 -281 145 -27 404 -24 540
5 119 25 278 75 428 133 l102 40 0 474 0 474 -435 0 -435 0 0 -130 0 -130 290
0 290 0 0 -269 0 -269 -62 -21 c-132 -44 -240 -62 -403 -68 -244 -8 -382 24
-538 127 -194 127 -307 333 -338 617 -27 255 18 495 127 670 157 252 425 367
777 335 226 -21 386 -78 579 -204 67 -44 129 -83 135 -85 10 -4 13 35 13 175
l0 179 -127 51 c-160 63 -234 86 -370 112 -125 25 -386 35 -498 19z"/>
<path d="M2968 3600 c-263 -48 -474 -212 -572 -448 -57 -134 -71 -220 -70
-422 1 -216 15 -286 88 -435 94 -190 253 -313 487 -377 75 -20 105 -23 284
-22 199 0 200 1 325 36 69 20 157 49 195 65 l70 28 3 144 c1 80 -1 148 -6 153
-5 5 -35 -9 -68 -31 -75 -50 -201 -105 -307 -133 -99 -26 -300 -31 -387 -9
-236 58 -377 232 -405 498 l-7 63 604 2 603 3 3 95 c9 278 -71 513 -221 645
-60 53 -166 108 -252 131 -69 18 -297 27 -367 14z m266 -235 c179 -38 278
-166 299 -387 l5 -48 -469 0 -468 0 5 33 c10 58 36 131 62 177 34 60 114 144
166 173 107 62 259 82 400 52z"/>
<path d="M6845 3595 c-167 -32 -267 -85 -391 -210 -76 -76 -99 -106 -138 -185
-81 -165 -114 -362 -95 -571 19 -222 85 -375 219 -510 71 -71 101 -94 180
-132 137 -68 224 -88 408 -94 208 -8 318 12 555 97 l87 32 0 154 c0 85 -3 154
-6 154 -3 0 -20 -11 -37 -24 -18 -13 -63 -39 -102 -59 -408 -203 -813 -133
-959 165 -38 77 -66 184 -66 256 l0 42 600 0 600 0 0 143 c0 79 -5 170 -11
203 -64 362 -305 557 -684 553 -49 0 -121 -7 -160 -14z m338 -245 c148 -56
228 -172 244 -352 l6 -68 -467 0 c-288 0 -466 4 -466 10 0 35 28 125 56 182
62 123 176 214 307 244 89 20 245 12 320 -16z"/>
<path d="M8120 2745 l0 -826 138 3 137 3 3 583 2 582 61 45 c198 146 390 184
652 129 l27 -6 0 145 0 146 -57 7 c-93 12 -223 7 -293 -11 -88 -22 -209 -83
-305 -154 l-80 -59 -5 117 -5 116 -137 3 -138 3 0 -826z"/>
</g>
</svg>
